<svg xmlns="http://www.w3.org/2000/svg" width="53.834" height="32.301" viewBox="0 0 53.834 32.301">
  <path id="Icon_awesome-graduation-cap" data-name="Icon awesome-graduation-cap" d="M52.348,12,28.885,4.794a6.72,6.72,0,0,0-3.936,0L1.485,12a1.98,1.98,0,0,0,0,3.835l4.091,1.257a6.628,6.628,0,0,0-1.5,3.945,2.6,2.6,0,0,0-.214,4.46L1.71,35.163A1.346,1.346,0,0,0,3.023,36.8h4.72a1.346,1.346,0,0,0,1.314-1.638L6.909,25.5a2.589,2.589,0,0,0-.151-4.418A3.968,3.968,0,0,1,8.5,17.993l16.45,5.054a6.727,6.727,0,0,0,3.936,0l23.464-7.209a1.981,1.981,0,0,0,0-3.836ZM29.675,25.621a9.416,9.416,0,0,1-5.517,0l-12.2-3.747-1.193,9.544c0,2.973,7.231,5.383,16.15,5.383s16.15-2.41,16.15-5.383l-1.193-9.545-12.2,3.748Z" transform="translate(0 -4.5)" fill="#0d98ba"/>
</svg>
