<svg xmlns="http://www.w3.org/2000/svg" width="483.844" height="423.364" viewBox="0 0 483.844 423.364">
  <path id="ic_filler2" d="M438.484,2.25H317.523a45.372,45.372,0,0,0-45.36,45.36V168.571a45.372,45.372,0,0,0,45.36,45.36h75.6v60.481a60.537,60.537,0,0,1-60.481,60.481h-7.56a22.626,22.626,0,0,0-22.68,22.68v45.36a22.626,22.626,0,0,0,22.68,22.68h7.56a151.16,151.16,0,0,0,151.2-151.2V47.61A45.372,45.372,0,0,0,438.484,2.25Zm-272.162,0H45.36A45.372,45.372,0,0,0,0,47.61V168.571a45.372,45.372,0,0,0,45.36,45.36h75.6v60.481a60.537,60.537,0,0,1-60.481,60.481H52.92a22.626,22.626,0,0,0-22.68,22.68v45.36a22.626,22.626,0,0,0,22.68,22.68h7.56a151.16,151.16,0,0,0,151.2-151.2V47.61A45.372,45.372,0,0,0,166.321,2.25Z" transform="translate(0 -2.25)" fill="#24a7c7"/>
</svg>
