<svg xmlns="http://www.w3.org/2000/svg" xmlns:xlink="http://www.w3.org/1999/xlink" width="919.445" height="653.905" viewBox="0 0 919.445 653.905">
  <defs>
    <linearGradient id="linear-gradient" x1="0.499" y1="1" x2="0.499" gradientUnits="objectBoundingBox">
      <stop offset="0" stop-color="gray" stop-opacity="0.251"/>
      <stop offset="0.54" stop-color="gray" stop-opacity="0.122"/>
      <stop offset="1" stop-color="gray" stop-opacity="0.102"/>
    </linearGradient>
  </defs>
  <g id="landing_image" transform="translate(0.004 0.003)">
    <path id="Path_6" data-name="Path 6" d="M629.432,192.478c-58.944-2.049-115.083-21.075-168.69-41.895s-106.7-43.889-164.236-54.918c-37-7.095-79.327-8.1-109.136,11.73-28.7,19.126-37.969,52.05-42.951,82.633-3.752,23.006-5.956,47.213,4.317,68.753,7.14,14.955,19.8,27.523,28.561,41.849,30.483,49.836,8.934,111.294-24.089,159.956-15.483,22.833-33.47,44.627-45.428,68.908s-17.486,52.141-7.022,76.931c10.364,24.59,35.073,43.024,61.84,56,54.363,26.357,118.4,33.907,180.885,38.179,138.28,9.463,277.288,5.364,415.932,1.266,51.312-1.521,102.842-3.06,153.316-10.993,28.033-4.408,56.968-11.4,77.323-28.233,25.829-21.43,32.232-57.724,14.918-84.591-29.035-45.073-109.29-56.266-129.609-104.646-11.166-26.621.3-56.285,16.539-80.975,34.827-52.969,93.2-99.445,96.267-159.992,2.113-41.594-25.947-83.243-69.336-102.915-45.474-20.629-108.544-18.033-142.078,16.111C742.192,180.756,681.481,194.281,629.432,192.478Z" transform="translate(-95.23 -91.02)" fill="#0d98ba" opacity="0.1"/>
    <g id="Group_4" data-name="Group 4" transform="translate(47.222 306.883)" opacity="0.2">
      <path id="Path_7" data-name="Path 7" d="M341.914,717.383a22.059,22.059,0,0,1,1.366,3.251q-10.929,4.126-21.858,8.652c-.155-.264-.31-.546-.455-.829a18.615,18.615,0,0,1-2.268-9.517c.191-4.271,2.086-7.951,5.465-9.727s7.477-1.284,11.111.911a18.8,18.8,0,0,1,6.639,7.259Z" transform="translate(-162.396 -452.978)" fill="#3f3d56"/>
      <ellipse id="Ellipse_1" data-name="Ellipse 1" cx="11.858" cy="15.528" rx="11.858" ry="15.528" transform="translate(142.438 244.964) rotate(-27.84)" fill="#3f3d56"/>
      <ellipse id="Ellipse_2" data-name="Ellipse 2" cx="11.858" cy="15.528" rx="11.858" ry="15.528" transform="translate(133.58 228.185) rotate(-27.84)" fill="#3f3d56"/>
      <ellipse id="Ellipse_3" data-name="Ellipse 3" cx="11.858" cy="15.528" rx="11.858" ry="15.528" transform="translate(124.718 211.406) rotate(-27.84)" fill="#3f3d56"/>
      <ellipse id="Ellipse_4" data-name="Ellipse 4" cx="11.858" cy="15.528" rx="11.858" ry="15.528" transform="translate(115.851 194.626) rotate(-27.84)" fill="#3f3d56"/>
      <path id="Path_8" data-name="Path 8" d="M180.769,536.723a58.222,58.222,0,0,1-6.94-3.643l25.164-19.126L169.311,529.92a56.886,56.886,0,0,1-21.976-39.3l50.929-.373-51.184-7.6a56.813,56.813,0,1,1,112.651,12.4,56.519,56.519,0,0,1,10.565,6.139l-25.947,37.468,31.375-32.942a56.886,56.886,0,0,1,16.813,51.448,56.813,56.813,0,1,1-78.962,41.694,56.813,56.813,0,0,1-32.787-62.1Z" transform="translate(-147.08 -427.975)" fill="#0d98ba"/>
      <path id="Path_9" data-name="Path 9" d="M293.292,529.432a56.576,56.576,0,0,1,5.656,36.731,56.813,56.813,0,1,1-78.962,41.694C208.738,602.866,290.314,523.794,293.292,529.432Z" transform="translate(-153.492 -437.004)" opacity="0.1"/>
    </g>
    <g id="Group_5" data-name="Group 5" transform="translate(613.7 64.634)" opacity="0.2">
      <path id="Path_10" data-name="Path 10" d="M786.647,586.259A28.937,28.937,0,0,0,785.39,591q15.866,3.561,31.74,7.732c.164-.391.328-.811.483-1.229a25.992,25.992,0,0,0,1.266-13.543c-1.084-5.829-4.39-10.528-9.39-12.341s-10.528-.337-15.1,3.424A26.041,26.041,0,0,0,786.647,586.259Z" transform="translate(-770.525 -198.477)" fill="#3f3d56"/>
      <ellipse id="Ellipse_5" data-name="Ellipse 5" cx="21.558" cy="16.466" rx="21.558" ry="16.466" transform="matrix(0.341, -0.94, 0.94, 0.341, 17.751, 383.263)" fill="#3f3d56"/>
      <ellipse id="Ellipse_6" data-name="Ellipse 6" cx="21.558" cy="16.466" rx="21.558" ry="16.466" transform="matrix(0.34, -0.94, 0.94, 0.34, 25.789, 357.792)" fill="#3f3d56"/>
      <ellipse id="Ellipse_7" data-name="Ellipse 7" cx="21.558" cy="16.466" rx="21.558" ry="16.466" transform="matrix(0.341, -0.94, 0.94, 0.341, 35.741, 333.728)" fill="#3f3d56"/>
      <ellipse id="Ellipse_8" data-name="Ellipse 8" cx="21.558" cy="16.466" rx="21.558" ry="16.466" transform="matrix(0.341, -0.94, 0.94, 0.341, 44.732, 308.965)" fill="#3f3d56"/>
      <path id="Path_11" data-name="Path 11" d="M956.16,307.893a78.478,78.478,0,0,0,8.853-6.375l-38.252-21.448,43.871,16.3A79.007,79.007,0,0,0,993.4,238.138l-70.128,9.18,68.953-20.237a78.889,78.889,0,1,0-152.6,38.5,79.24,79.24,0,0,0-13.361,10.446l42.805,46.6-49.427-39.354a78.926,78.926,0,0,0-13.3,73.971,78.88,78.88,0,1,0,116.576,42.332,78.908,78.908,0,0,0,33.3-91.686Z" transform="translate(-769.072 -161.988)" fill="#0d98ba"/>
      <path id="Path_12" data-name="Path 12" d="M807.094,319.659a78.58,78.58,0,0,0-.783,51.612A78.88,78.88,0,1,0,922.887,413.6C937.377,404.623,810.117,311.343,807.094,319.659Z" transform="translate(-769.068 -176.013)" opacity="0.1"/>
    </g>
    <ellipse id="Ellipse_9" data-name="Ellipse 9" cx="61.294" cy="11.785" rx="61.294" ry="11.785" transform="translate(103.07 573.346)" fill="#0d98ba"/>
    <ellipse id="Ellipse_10" data-name="Ellipse 10" cx="7.14" cy="9.344" rx="7.14" ry="9.344" transform="translate(156.194 570.778)" fill="#3f3d56"/>
    <ellipse id="Ellipse_11" data-name="Ellipse 11" cx="7.14" cy="9.344" rx="7.14" ry="9.344" transform="translate(156.194 559.357)" fill="#3f3d56"/>
    <ellipse id="Ellipse_12" data-name="Ellipse 12" cx="7.14" cy="9.344" rx="7.14" ry="9.344" transform="translate(156.194 547.936)" fill="#3f3d56"/>
    <ellipse id="Ellipse_13" data-name="Ellipse 13" cx="7.14" cy="9.344" rx="7.14" ry="9.344" transform="translate(156.194 536.524)" fill="#3f3d56"/>
    <ellipse id="Ellipse_14" data-name="Ellipse 14" cx="7.14" cy="9.344" rx="7.14" ry="9.344" transform="translate(156.194 525.104)" fill="#3f3d56"/>
    <ellipse id="Ellipse_15" data-name="Ellipse 15" cx="7.14" cy="9.344" rx="7.14" ry="9.344" transform="translate(156.194 513.683)" fill="#3f3d56"/>
    <ellipse id="Ellipse_16" data-name="Ellipse 16" cx="7.14" cy="9.344" rx="7.14" ry="9.344" transform="translate(156.194 502.271)" fill="#3f3d56"/>
    <path id="Path_13" data-name="Path 13" d="M297.925,561.576a33.577,33.577,0,0,0,2.65-3.916l-18.743-3.078,20.273.155a34.217,34.217,0,0,0,.656-27.086l-27.2,14.108,25.091-18.434a34.19,34.19,0,1,0-56.467,38.252,34.109,34.109,0,0,0-3.907,6.23l24.344,12.65-25.956-8.716a34.2,34.2,0,0,0,5.519,32.1,34.181,34.181,0,1,0,53.734,0,34.19,34.19,0,0,0,0-42.268Z" transform="translate(-107.869 -128.076)" fill="#0d98ba"/>
    <path id="Path_14" data-name="Path 14" d="M236.867,590.121a34.008,34.008,0,0,0,7.286,21.139,34.181,34.181,0,1,0,53.734,0C302.505,605.449,236.867,586.324,236.867,590.121Z" transform="translate(-107.869 -135.519)" opacity="0.1"/>
    <rect id="Rectangle_9" data-name="Rectangle 9" width="440.449" height="95.037" rx="7.42" transform="translate(244.455 162.451)" fill="#35323e"/>
    <path id="Path_15" data-name="Path 15" d="M404.1,143.17s6.257,170.156-4.836,190.074H774.253s-15.929-130.884,0-190.074Z" transform="translate(-122.364 -95.674)" fill="#fff"/>
    <path id="Path_16" data-name="Path 16" d="M404.1,143.17s6.257,170.156-4.836,190.074H774.253s-15.929-130.884,0-190.074Z" transform="translate(-122.364 -95.674)" opacity="0.03"/>
    <rect id="Rectangle_10" data-name="Rectangle 10" width="274.856" height="34.144" transform="translate(320.138 230.32)" fill="#35323e"/>
    <path id="Path_17" data-name="Path 17" d="M830.317,745.309H320.878a27.159,27.159,0,0,1-26.995-30.164l10.419-93.89q1.029-9.363,1.484-18.771l1.958-63.662q.674-21.576,2.914-43.042,1.166-11.129,2.732-22.213l13.4-93.334a49.181,49.181,0,0,1,48.634-42.077H395.77a47.815,47.815,0,0,1,28.607,9.627c21.075,15.729,80.948,27.077,151.531,27.077s130.465-11.348,151.586-27.113A47.814,47.814,0,0,1,756.1,338.12h32.96a29.463,29.463,0,0,1,29.017,24.354l17.987,102q2.732,15.556,4.636,31.239,3.169,26.075,3.98,52.377l1.821,59.154a332.8,332.8,0,0,0,3.2,36.858l9.663,67.678a29.335,29.335,0,0,1-29.044,33.525Z" transform="translate(-112.945 -113.073)" fill="#464353"/>
    <rect id="Rectangle_11" data-name="Rectangle 11" width="486.543" height="209.136" rx="19.96" transform="translate(219.992 396.068)" opacity="0.1"/>
    <ellipse id="Ellipse_17" data-name="Ellipse 17" cx="13.944" cy="11.667" rx="13.944" ry="11.667" transform="translate(237.342 408.864)" fill="#0d98ba"/>
    <ellipse id="Ellipse_18" data-name="Ellipse 18" cx="13.944" cy="11.667" rx="13.944" ry="11.667" transform="translate(237.342 408.864)" opacity="0.1"/>
    <ellipse id="Ellipse_19" data-name="Ellipse 19" cx="13.944" cy="11.667" rx="13.944" ry="11.667" transform="translate(237.342 406.305)" fill="#0d98ba"/>
    <ellipse id="Ellipse_20" data-name="Ellipse 20" cx="13.944" cy="11.667" rx="13.944" ry="11.667" transform="translate(253.845 449.557)" fill="#35323e"/>
    <ellipse id="Ellipse_21" data-name="Ellipse 21" cx="13.944" cy="11.667" rx="13.944" ry="11.667" transform="translate(253.845 449.557)" opacity="0.1"/>
    <ellipse id="Ellipse_22" data-name="Ellipse 22" cx="13.944" cy="11.667" rx="13.944" ry="11.667" transform="translate(253.845 446.997)" fill="#35323e"/>
    <ellipse id="Ellipse_23" data-name="Ellipse 23" cx="13.944" cy="11.667" rx="13.944" ry="11.667" transform="translate(262.952 490.249)" fill="#35323e"/>
    <ellipse id="Ellipse_24" data-name="Ellipse 24" cx="13.944" cy="11.667" rx="13.944" ry="11.667" transform="translate(262.952 490.249)" opacity="0.1"/>
    <ellipse id="Ellipse_25" data-name="Ellipse 25" cx="13.944" cy="11.667" rx="13.944" ry="11.667" transform="translate(262.952 487.69)" fill="#35323e"/>
    <ellipse id="Ellipse_26" data-name="Ellipse 26" cx="13.944" cy="11.667" rx="13.944" ry="11.667" transform="translate(227.67 495.085)" fill="#35323e"/>
    <ellipse id="Ellipse_27" data-name="Ellipse 27" cx="13.944" cy="11.667" rx="13.944" ry="11.667" transform="translate(227.67 495.085)" opacity="0.1"/>
    <ellipse id="Ellipse_28" data-name="Ellipse 28" cx="13.944" cy="11.667" rx="13.944" ry="11.667" transform="translate(227.67 492.526)" fill="#35323e"/>
    <ellipse id="Ellipse_29" data-name="Ellipse 29" cx="13.944" cy="11.667" rx="13.944" ry="11.667" transform="translate(280.02 530.932)" fill="#35323e"/>
    <ellipse id="Ellipse_30" data-name="Ellipse 30" cx="13.944" cy="11.667" rx="13.944" ry="11.667" transform="translate(280.02 530.932)" opacity="0.1"/>
    <ellipse id="Ellipse_31" data-name="Ellipse 31" cx="13.944" cy="11.667" rx="13.944" ry="11.667" transform="translate(280.02 528.373)" fill="#35323e"/>
    <ellipse id="Ellipse_32" data-name="Ellipse 32" cx="13.944" cy="11.667" rx="13.944" ry="11.667" transform="translate(233.362 532.362)" fill="#35323e"/>
    <ellipse id="Ellipse_33" data-name="Ellipse 33" cx="13.944" cy="11.667" rx="13.944" ry="11.667" transform="translate(233.362 532.362)" opacity="0.1"/>
    <ellipse id="Ellipse_34" data-name="Ellipse 34" cx="13.944" cy="11.667" rx="13.944" ry="11.667" transform="translate(233.362 529.794)" fill="#35323e"/>
    <ellipse id="Ellipse_35" data-name="Ellipse 35" cx="13.944" cy="11.667" rx="13.944" ry="11.667" transform="translate(318.435 530.932)" fill="#35323e"/>
    <ellipse id="Ellipse_36" data-name="Ellipse 36" cx="13.944" cy="11.667" rx="13.944" ry="11.667" transform="translate(318.435 530.932)" opacity="0.1"/>
    <ellipse id="Ellipse_37" data-name="Ellipse 37" cx="13.944" cy="11.667" rx="13.944" ry="11.667" transform="translate(318.435 528.373)" fill="#35323e"/>
    <ellipse id="Ellipse_38" data-name="Ellipse 38" cx="13.944" cy="11.667" rx="13.944" ry="11.667" transform="translate(359.119 530.932)" fill="#35323e"/>
    <ellipse id="Ellipse_39" data-name="Ellipse 39" cx="13.944" cy="11.667" rx="13.944" ry="11.667" transform="translate(359.119 530.932)" opacity="0.1"/>
    <ellipse id="Ellipse_40" data-name="Ellipse 40" cx="13.944" cy="11.667" rx="13.944" ry="11.667" transform="translate(359.119 528.373)" fill="#35323e"/>
    <ellipse id="Ellipse_41" data-name="Ellipse 41" cx="13.944" cy="11.667" rx="13.944" ry="11.667" transform="translate(396.678 530.932)" fill="#35323e"/>
    <ellipse id="Ellipse_42" data-name="Ellipse 42" cx="13.944" cy="11.667" rx="13.944" ry="11.667" transform="translate(396.678 530.932)" opacity="0.1"/>
    <ellipse id="Ellipse_43" data-name="Ellipse 43" cx="13.944" cy="11.667" rx="13.944" ry="11.667" transform="translate(396.678 528.373)" fill="#35323e"/>
    <ellipse id="Ellipse_44" data-name="Ellipse 44" cx="13.944" cy="11.667" rx="13.944" ry="11.667" transform="translate(438.218 530.932)" fill="#35323e"/>
    <ellipse id="Ellipse_45" data-name="Ellipse 45" cx="13.944" cy="11.667" rx="13.944" ry="11.667" transform="translate(438.218 530.932)" opacity="0.1"/>
    <ellipse id="Ellipse_46" data-name="Ellipse 46" cx="13.944" cy="11.667" rx="13.944" ry="11.667" transform="translate(438.218 528.373)" fill="#35323e"/>
    <ellipse id="Ellipse_47" data-name="Ellipse 47" cx="13.944" cy="11.667" rx="13.944" ry="11.667" transform="translate(475.777 530.932)" fill="#35323e"/>
    <ellipse id="Ellipse_48" data-name="Ellipse 48" cx="13.944" cy="11.667" rx="13.944" ry="11.667" transform="translate(475.777 530.932)" opacity="0.1"/>
    <ellipse id="Ellipse_49" data-name="Ellipse 49" cx="13.944" cy="11.667" rx="13.944" ry="11.667" transform="translate(475.777 528.373)" fill="#35323e"/>
    <ellipse id="Ellipse_50" data-name="Ellipse 50" cx="13.944" cy="11.667" rx="13.944" ry="11.667" transform="translate(513.045 530.932)" fill="#35323e"/>
    <ellipse id="Ellipse_51" data-name="Ellipse 51" cx="13.944" cy="11.667" rx="13.944" ry="11.667" transform="translate(513.045 530.932)" opacity="0.1"/>
    <ellipse id="Ellipse_52" data-name="Ellipse 52" cx="13.944" cy="11.667" rx="13.944" ry="11.667" transform="translate(513.045 528.373)" fill="#35323e"/>
    <ellipse id="Ellipse_53" data-name="Ellipse 53" cx="13.944" cy="11.667" rx="13.944" ry="11.667" transform="translate(553.455 530.932)" fill="#35323e"/>
    <ellipse id="Ellipse_54" data-name="Ellipse 54" cx="13.944" cy="11.667" rx="13.944" ry="11.667" transform="translate(553.455 530.932)" opacity="0.1"/>
    <ellipse id="Ellipse_55" data-name="Ellipse 55" cx="13.944" cy="11.667" rx="13.944" ry="11.667" transform="translate(553.455 528.373)" fill="#35323e"/>
    <ellipse id="Ellipse_56" data-name="Ellipse 56" cx="13.944" cy="11.667" rx="13.944" ry="11.667" transform="translate(591.297 530.932)" fill="#35323e"/>
    <ellipse id="Ellipse_57" data-name="Ellipse 57" cx="13.944" cy="11.667" rx="13.944" ry="11.667" transform="translate(591.297 530.932)" opacity="0.1"/>
    <ellipse id="Ellipse_58" data-name="Ellipse 58" cx="13.944" cy="11.667" rx="13.944" ry="11.667" transform="translate(591.297 528.373)" fill="#35323e"/>
    <ellipse id="Ellipse_59" data-name="Ellipse 59" cx="13.944" cy="11.667" rx="13.944" ry="11.667" transform="translate(633.119 530.932)" fill="#35323e"/>
    <ellipse id="Ellipse_60" data-name="Ellipse 60" cx="13.944" cy="11.667" rx="13.944" ry="11.667" transform="translate(633.119 530.932)" opacity="0.1"/>
    <ellipse id="Ellipse_61" data-name="Ellipse 61" cx="13.944" cy="11.667" rx="13.944" ry="11.667" transform="translate(633.119 528.373)" fill="#35323e"/>
    <ellipse id="Ellipse_62" data-name="Ellipse 62" cx="13.944" cy="11.667" rx="13.944" ry="11.667" transform="translate(676.088 530.932)" fill="#35323e"/>
    <ellipse id="Ellipse_63" data-name="Ellipse 63" cx="13.944" cy="11.667" rx="13.944" ry="11.667" transform="translate(676.088 530.932)" opacity="0.1"/>
    <ellipse id="Ellipse_64" data-name="Ellipse 64" cx="13.944" cy="11.667" rx="13.944" ry="11.667" transform="translate(676.088 528.373)" fill="#35323e"/>
    <ellipse id="Ellipse_65" data-name="Ellipse 65" cx="13.944" cy="11.667" rx="13.944" ry="11.667" transform="translate(301.65 490.249)" fill="#35323e"/>
    <ellipse id="Ellipse_66" data-name="Ellipse 66" cx="13.944" cy="11.667" rx="13.944" ry="11.667" transform="translate(301.65 490.249)" opacity="0.1"/>
    <ellipse id="Ellipse_67" data-name="Ellipse 67" cx="13.944" cy="11.667" rx="13.944" ry="11.667" transform="translate(301.65 487.69)" fill="#35323e"/>
    <ellipse id="Ellipse_68" data-name="Ellipse 68" cx="13.944" cy="11.667" rx="13.944" ry="11.667" transform="translate(340.339 490.249)" fill="#35323e"/>
    <ellipse id="Ellipse_69" data-name="Ellipse 69" cx="13.944" cy="11.667" rx="13.944" ry="11.667" transform="translate(340.339 490.249)" opacity="0.1"/>
    <ellipse id="Ellipse_70" data-name="Ellipse 70" cx="13.944" cy="11.667" rx="13.944" ry="11.667" transform="translate(340.339 487.69)" fill="#35323e"/>
    <ellipse id="Ellipse_71" data-name="Ellipse 71" cx="13.944" cy="11.667" rx="13.944" ry="11.667" transform="translate(380.175 490.249)" fill="#35323e"/>
    <ellipse id="Ellipse_72" data-name="Ellipse 72" cx="13.944" cy="11.667" rx="13.944" ry="11.667" transform="translate(380.175 490.249)" opacity="0.1"/>
    <ellipse id="Ellipse_73" data-name="Ellipse 73" cx="13.944" cy="11.667" rx="13.944" ry="11.667" transform="translate(380.175 487.69)" fill="#35323e"/>
    <ellipse id="Ellipse_74" data-name="Ellipse 74" cx="13.944" cy="11.667" rx="13.944" ry="11.667" transform="translate(418.299 490.249)" fill="#35323e"/>
    <ellipse id="Ellipse_75" data-name="Ellipse 75" cx="13.944" cy="11.667" rx="13.944" ry="11.667" transform="translate(418.299 490.249)" opacity="0.1"/>
    <ellipse id="Ellipse_76" data-name="Ellipse 76" cx="13.944" cy="11.667" rx="13.944" ry="11.667" transform="translate(418.299 487.69)" fill="#35323e"/>
    <ellipse id="Ellipse_77" data-name="Ellipse 77" cx="13.944" cy="11.667" rx="13.944" ry="11.667" transform="translate(457.28 490.249)" fill="#35323e"/>
    <ellipse id="Ellipse_78" data-name="Ellipse 78" cx="13.944" cy="11.667" rx="13.944" ry="11.667" transform="translate(457.28 490.249)" opacity="0.1"/>
    <ellipse id="Ellipse_79" data-name="Ellipse 79" cx="13.944" cy="11.667" rx="13.944" ry="11.667" transform="translate(457.28 487.69)" fill="#35323e"/>
    <ellipse id="Ellipse_80" data-name="Ellipse 80" cx="13.944" cy="11.667" rx="13.944" ry="11.667" transform="translate(494.557 490.249)" fill="#35323e"/>
    <ellipse id="Ellipse_81" data-name="Ellipse 81" cx="13.944" cy="11.667" rx="13.944" ry="11.667" transform="translate(494.557 490.249)" opacity="0.1"/>
    <ellipse id="Ellipse_82" data-name="Ellipse 82" cx="13.944" cy="11.667" rx="13.944" ry="11.667" transform="translate(494.557 487.69)" fill="#35323e"/>
    <ellipse id="Ellipse_83" data-name="Ellipse 83" cx="13.944" cy="11.667" rx="13.944" ry="11.667" transform="translate(534.958 490.249)" fill="#35323e"/>
    <ellipse id="Ellipse_84" data-name="Ellipse 84" cx="13.944" cy="11.667" rx="13.944" ry="11.667" transform="translate(534.958 490.249)" opacity="0.1"/>
    <ellipse id="Ellipse_85" data-name="Ellipse 85" cx="13.944" cy="11.667" rx="13.944" ry="11.667" transform="translate(534.958 487.69)" fill="#35323e"/>
    <ellipse id="Ellipse_86" data-name="Ellipse 86" cx="13.944" cy="11.667" rx="13.944" ry="11.667" transform="translate(573.373 490.249)" fill="#35323e"/>
    <ellipse id="Ellipse_87" data-name="Ellipse 87" cx="13.944" cy="11.667" rx="13.944" ry="11.667" transform="translate(573.373 490.249)" opacity="0.1"/>
    <ellipse id="Ellipse_88" data-name="Ellipse 88" cx="13.944" cy="11.667" rx="13.944" ry="11.667" transform="translate(573.373 487.69)" fill="#35323e"/>
    <ellipse id="Ellipse_89" data-name="Ellipse 89" cx="13.944" cy="11.667" rx="13.944" ry="11.667" transform="translate(612.636 490.249)" fill="#35323e"/>
    <ellipse id="Ellipse_90" data-name="Ellipse 90" cx="13.944" cy="11.667" rx="13.944" ry="11.667" transform="translate(612.636 490.249)" opacity="0.1"/>
    <ellipse id="Ellipse_91" data-name="Ellipse 91" cx="13.944" cy="11.667" rx="13.944" ry="11.667" transform="translate(612.636 487.69)" fill="#35323e"/>
    <ellipse id="Ellipse_92" data-name="Ellipse 92" cx="13.944" cy="11.667" rx="13.944" ry="11.667" transform="translate(651.899 490.249)" fill="#35323e"/>
    <ellipse id="Ellipse_93" data-name="Ellipse 93" cx="13.944" cy="11.667" rx="13.944" ry="11.667" transform="translate(651.899 490.249)" opacity="0.1"/>
    <ellipse id="Ellipse_94" data-name="Ellipse 94" cx="13.944" cy="11.667" rx="13.944" ry="11.667" transform="translate(651.899 487.69)" fill="#35323e"/>
    <ellipse id="Ellipse_95" data-name="Ellipse 95" cx="13.944" cy="11.667" rx="13.944" ry="11.667" transform="translate(293.107 449.557)" fill="#35323e"/>
    <ellipse id="Ellipse_96" data-name="Ellipse 96" cx="13.944" cy="11.667" rx="13.944" ry="11.667" transform="translate(293.107 449.557)" opacity="0.1"/>
    <ellipse id="Ellipse_97" data-name="Ellipse 97" cx="13.944" cy="11.667" rx="13.944" ry="11.667" transform="translate(293.107 446.997)" fill="#35323e"/>
    <ellipse id="Ellipse_98" data-name="Ellipse 98" cx="13.944" cy="11.667" rx="13.944" ry="11.667" transform="translate(332.379 449.557)" fill="#35323e"/>
    <ellipse id="Ellipse_99" data-name="Ellipse 99" cx="13.944" cy="11.667" rx="13.944" ry="11.667" transform="translate(332.379 449.557)" opacity="0.1"/>
    <ellipse id="Ellipse_100" data-name="Ellipse 100" cx="13.944" cy="11.667" rx="13.944" ry="11.667" transform="translate(332.379 446.997)" fill="#35323e"/>
    <ellipse id="Ellipse_101" data-name="Ellipse 101" cx="13.944" cy="11.667" rx="13.944" ry="11.667" transform="translate(370.221 449.557)" fill="#35323e"/>
    <ellipse id="Ellipse_102" data-name="Ellipse 102" cx="13.944" cy="11.667" rx="13.944" ry="11.667" transform="translate(370.221 449.557)" opacity="0.1"/>
    <ellipse id="Ellipse_103" data-name="Ellipse 103" cx="13.944" cy="11.667" rx="13.944" ry="11.667" transform="translate(370.221 446.997)" fill="#35323e"/>
    <ellipse id="Ellipse_104" data-name="Ellipse 104" cx="13.944" cy="11.667" rx="13.944" ry="11.667" transform="translate(408.063 449.557)" fill="#35323e"/>
    <ellipse id="Ellipse_105" data-name="Ellipse 105" cx="13.944" cy="11.667" rx="13.944" ry="11.667" transform="translate(408.063 449.557)" opacity="0.1"/>
    <ellipse id="Ellipse_106" data-name="Ellipse 106" cx="13.944" cy="11.667" rx="13.944" ry="11.667" transform="translate(408.063 446.997)" fill="#35323e"/>
    <ellipse id="Ellipse_107" data-name="Ellipse 107" cx="13.944" cy="11.667" rx="13.944" ry="11.667" transform="translate(446.187 449.557)" fill="#35323e"/>
    <ellipse id="Ellipse_108" data-name="Ellipse 108" cx="13.944" cy="11.667" rx="13.944" ry="11.667" transform="translate(446.187 449.557)" opacity="0.1"/>
    <ellipse id="Ellipse_109" data-name="Ellipse 109" cx="13.944" cy="11.667" rx="13.944" ry="11.667" transform="translate(446.187 446.997)" fill="#35323e"/>
    <ellipse id="Ellipse_110" data-name="Ellipse 110" cx="13.944" cy="11.667" rx="13.944" ry="11.667" transform="translate(483.746 449.557)" fill="#35323e"/>
    <ellipse id="Ellipse_111" data-name="Ellipse 111" cx="13.944" cy="11.667" rx="13.944" ry="11.667" transform="translate(483.746 449.557)" opacity="0.1"/>
    <ellipse id="Ellipse_112" data-name="Ellipse 112" cx="13.944" cy="11.667" rx="13.944" ry="11.667" transform="translate(483.746 446.997)" fill="#35323e"/>
    <ellipse id="Ellipse_113" data-name="Ellipse 113" cx="13.944" cy="11.667" rx="13.944" ry="11.667" transform="translate(523.573 449.557)" fill="#35323e"/>
    <ellipse id="Ellipse_114" data-name="Ellipse 114" cx="13.944" cy="11.667" rx="13.944" ry="11.667" transform="translate(523.573 449.557)" opacity="0.1"/>
    <ellipse id="Ellipse_115" data-name="Ellipse 115" cx="13.944" cy="11.667" rx="13.944" ry="11.667" transform="translate(523.573 446.997)" fill="#35323e"/>
    <ellipse id="Ellipse_116" data-name="Ellipse 116" cx="13.944" cy="11.667" rx="13.944" ry="11.667" transform="translate(561.133 449.557)" fill="#35323e"/>
    <ellipse id="Ellipse_117" data-name="Ellipse 117" cx="13.944" cy="11.667" rx="13.944" ry="11.667" transform="translate(561.133 449.557)" opacity="0.1"/>
    <ellipse id="Ellipse_118" data-name="Ellipse 118" cx="13.944" cy="11.667" rx="13.944" ry="11.667" transform="translate(561.133 446.997)" fill="#35323e"/>
    <ellipse id="Ellipse_119" data-name="Ellipse 119" cx="13.944" cy="11.667" rx="13.944" ry="11.667" transform="translate(601.252 449.557)" fill="#35323e"/>
    <ellipse id="Ellipse_120" data-name="Ellipse 120" cx="13.944" cy="11.667" rx="13.944" ry="11.667" transform="translate(601.252 449.557)" opacity="0.1"/>
    <ellipse id="Ellipse_121" data-name="Ellipse 121" cx="13.944" cy="11.667" rx="13.944" ry="11.667" transform="translate(601.252 446.997)" fill="#35323e"/>
    <ellipse id="Ellipse_122" data-name="Ellipse 122" cx="13.944" cy="11.667" rx="13.944" ry="11.667" transform="translate(640.514 449.557)" fill="#35323e"/>
    <ellipse id="Ellipse_123" data-name="Ellipse 123" cx="13.944" cy="11.667" rx="13.944" ry="11.667" transform="translate(640.514 449.557)" opacity="0.1"/>
    <ellipse id="Ellipse_124" data-name="Ellipse 124" cx="13.944" cy="11.667" rx="13.944" ry="11.667" transform="translate(640.514 446.997)" fill="#35323e"/>
    <ellipse id="Ellipse_125" data-name="Ellipse 125" cx="13.944" cy="11.667" rx="13.944" ry="11.667" transform="translate(273.763 408.864)" fill="#35323e"/>
    <ellipse id="Ellipse_126" data-name="Ellipse 126" cx="13.944" cy="11.667" rx="13.944" ry="11.667" transform="translate(273.763 408.864)" opacity="0.1"/>
    <ellipse id="Ellipse_127" data-name="Ellipse 127" cx="13.944" cy="11.667" rx="13.944" ry="11.667" transform="translate(273.763 406.305)" fill="#35323e"/>
    <ellipse id="Ellipse_128" data-name="Ellipse 128" cx="13.944" cy="11.667" rx="13.944" ry="11.667" transform="translate(312.461 408.864)" fill="#35323e"/>
    <ellipse id="Ellipse_129" data-name="Ellipse 129" cx="13.944" cy="11.667" rx="13.944" ry="11.667" transform="translate(312.461 408.864)" opacity="0.1"/>
    <ellipse id="Ellipse_130" data-name="Ellipse 130" cx="13.944" cy="11.667" rx="13.944" ry="11.667" transform="translate(312.461 406.305)" fill="#35323e"/>
    <ellipse id="Ellipse_131" data-name="Ellipse 131" cx="13.944" cy="11.667" rx="13.944" ry="11.667" transform="translate(349.729 408.864)" fill="#35323e"/>
    <ellipse id="Ellipse_132" data-name="Ellipse 132" cx="13.944" cy="11.667" rx="13.944" ry="11.667" transform="translate(349.729 408.864)" opacity="0.1"/>
    <ellipse id="Ellipse_133" data-name="Ellipse 133" cx="13.944" cy="11.667" rx="13.944" ry="11.667" transform="translate(349.729 406.305)" fill="#35323e"/>
    <ellipse id="Ellipse_134" data-name="Ellipse 134" cx="13.944" cy="11.667" rx="13.944" ry="11.667" transform="translate(388.144 408.864)" fill="#35323e"/>
    <ellipse id="Ellipse_135" data-name="Ellipse 135" cx="13.944" cy="11.667" rx="13.944" ry="11.667" transform="translate(388.144 408.864)" opacity="0.1"/>
    <ellipse id="Ellipse_136" data-name="Ellipse 136" cx="13.944" cy="11.667" rx="13.944" ry="11.667" transform="translate(388.144 406.305)" fill="#35323e"/>
    <ellipse id="Ellipse_137" data-name="Ellipse 137" cx="13.944" cy="11.667" rx="13.944" ry="11.667" transform="translate(425.986 408.864)" fill="#35323e"/>
    <ellipse id="Ellipse_138" data-name="Ellipse 138" cx="13.944" cy="11.667" rx="13.944" ry="11.667" transform="translate(425.986 408.864)" opacity="0.1"/>
    <ellipse id="Ellipse_139" data-name="Ellipse 139" cx="13.944" cy="11.667" rx="13.944" ry="11.667" transform="translate(425.986 406.305)" fill="#35323e"/>
    <ellipse id="Ellipse_140" data-name="Ellipse 140" cx="13.944" cy="11.667" rx="13.944" ry="11.667" transform="translate(464.684 408.864)" fill="#35323e"/>
    <ellipse id="Ellipse_141" data-name="Ellipse 141" cx="13.944" cy="11.667" rx="13.944" ry="11.667" transform="translate(464.684 408.864)" opacity="0.1"/>
    <ellipse id="Ellipse_142" data-name="Ellipse 142" cx="13.944" cy="11.667" rx="13.944" ry="11.667" transform="translate(464.684 406.305)" fill="#35323e"/>
    <ellipse id="Ellipse_143" data-name="Ellipse 143" cx="13.944" cy="11.667" rx="13.944" ry="11.667" transform="translate(502.526 408.864)" fill="#35323e"/>
    <ellipse id="Ellipse_144" data-name="Ellipse 144" cx="13.944" cy="11.667" rx="13.944" ry="11.667" transform="translate(502.526 408.864)" opacity="0.1"/>
    <ellipse id="Ellipse_145" data-name="Ellipse 145" cx="13.944" cy="11.667" rx="13.944" ry="11.667" transform="translate(502.526 406.305)" fill="#35323e"/>
    <ellipse id="Ellipse_146" data-name="Ellipse 146" cx="13.944" cy="11.667" rx="13.944" ry="11.667" transform="translate(540.932 408.864)" fill="#35323e"/>
    <ellipse id="Ellipse_147" data-name="Ellipse 147" cx="13.944" cy="11.667" rx="13.944" ry="11.667" transform="translate(540.932 408.864)" opacity="0.1"/>
    <ellipse id="Ellipse_148" data-name="Ellipse 148" cx="13.944" cy="11.667" rx="13.944" ry="11.667" transform="translate(540.932 406.305)" fill="#35323e"/>
    <ellipse id="Ellipse_149" data-name="Ellipse 149" cx="13.944" cy="11.667" rx="13.944" ry="11.667" transform="translate(580.486 408.864)" fill="#35323e"/>
    <ellipse id="Ellipse_150" data-name="Ellipse 150" cx="13.944" cy="11.667" rx="13.944" ry="11.667" transform="translate(580.486 408.864)" opacity="0.1"/>
    <ellipse id="Ellipse_151" data-name="Ellipse 151" cx="13.944" cy="11.667" rx="13.944" ry="11.667" transform="translate(580.486 406.305)" fill="#35323e"/>
    <ellipse id="Ellipse_152" data-name="Ellipse 152" cx="13.944" cy="11.667" rx="13.944" ry="11.667" transform="translate(619.175 408.864)" fill="#35323e"/>
    <ellipse id="Ellipse_153" data-name="Ellipse 153" cx="13.944" cy="11.667" rx="13.944" ry="11.667" transform="translate(619.175 408.864)" opacity="0.1"/>
    <ellipse id="Ellipse_154" data-name="Ellipse 154" cx="13.944" cy="11.667" rx="13.944" ry="11.667" transform="translate(619.175 406.305)" fill="#35323e"/>
    <ellipse id="Ellipse_155" data-name="Ellipse 155" cx="13.944" cy="11.667" rx="13.944" ry="11.667" transform="translate(657.017 408.864)" fill="#0d98ba"/>
    <ellipse id="Ellipse_156" data-name="Ellipse 156" cx="13.944" cy="11.667" rx="13.944" ry="11.667" transform="translate(657.017 408.864)" opacity="0.1"/>
    <ellipse id="Ellipse_157" data-name="Ellipse 157" cx="13.944" cy="11.667" rx="13.944" ry="11.667" transform="translate(657.017 406.305)" fill="#0d98ba"/>
    <rect id="Rectangle_12" data-name="Rectangle 12" width="425.941" height="22.477" rx="9.07" transform="translate(251.286 569.922)" fill="#35323e"/>
    <rect id="Rectangle_13" data-name="Rectangle 13" width="425.941" height="22.477" rx="9.07" transform="translate(251.286 569.922)" opacity="0.1"/>
    <rect id="Rectangle_14" data-name="Rectangle 14" width="425.941" height="22.477" rx="9.07" transform="translate(251.286 568.21)" fill="#35323e"/>
    <path id="Path_18" data-name="Path 18" d="M744.588,418.827c0,24.044-76.1,49.791-161.9,49.791S433.32,440.877,433.32,416.833,496.9,381.55,582.683,381.55,744.588,394.783,744.588,418.827Z" transform="translate(-125.404 -116.949)" opacity="0.1"/>
    <ellipse id="Ellipse_158" data-name="Ellipse 158" cx="9.39" cy="23.188" rx="9.39" ry="23.188" transform="translate(685.187 184.937)" fill="#464353"/>
    <ellipse id="Ellipse_159" data-name="Ellipse 159" cx="9.39" cy="23.188" rx="9.39" ry="23.188" transform="translate(225.393 184.937)" fill="#464353"/>
    <rect id="Rectangle_15" data-name="Rectangle 15" width="452.963" height="6.831" transform="translate(241.613 202.579)" opacity="0.1"/>
    <rect id="Rectangle_16" data-name="Rectangle 16" width="452.963" height="6.831" transform="translate(241.613 201.44)" fill="#464353"/>
    <path id="Path_19" data-name="Path 19" d="M615.968,321.566c-3.707-1.138-10.528,21.339-10.528,21.339h20.765S619.675,322.7,615.968,321.566Zm-.292,2.842a1.99,1.99,0,1,0,.009,0Zm.237,6.43c2.432.592,6.74,11.211,6.74,11.211H608.992s4.5-11.812,6.976-11.211Z" transform="translate(-140.765 -111.592)" fill="#464353"/>
    <path id="Path_20" data-name="Path 20" d="M842.358,495.744H312.3q1.166-11.13,2.732-22.213l13.4-93.334a49.181,49.181,0,0,1,48.634-42.077H397.41a47.815,47.815,0,0,1,28.607,9.627c21.075,15.729,80.948,27.077,151.531,27.077s130.484-11.312,151.6-27.077a47.814,47.814,0,0,1,28.607-9.627h32.96a29.463,29.463,0,0,1,29.017,24.354l17.987,102Q840.455,480.088,842.358,495.744Z" transform="translate(-114.603 -113.073)" fill="#fff" opacity="0.03"/>
    <g id="woman" transform="translate(385.558 416.586)">
      <path id="Path_21" data-name="Path 21" d="M579.718,630.917s-10.446-19.126-8.68-22.2a41.551,41.551,0,0,0,3.051-7.6s3.862-2.641,3.862-3.734,3.051-3.57,4.663-4.654.8-6.211,0-6.831a13.781,13.781,0,0,1-2.076-2.8s1.111-3.106,0-4.035.164-1.822,0-2.8a39.613,39.613,0,0,1,0-4.344,7.031,7.031,0,0,0-4.108-2.987l-.118-.492-.692-2.9s3.333-6.375-2.076-9.763a10.59,10.59,0,0,0-1.2-.638v-.419a27.138,27.138,0,0,0-.792-4.909c-.282-.911-.647-1.5-1.129-1.366a.747.747,0,0,0-.3.173,3.307,3.307,0,0,0-.574.683h0a11.639,11.639,0,0,0-1.275,3.552,20.511,20.511,0,0,0-.364,2.231h0a12.077,12.077,0,0,0-.619,1.384c-.656,1.7-1.43,4.663,0,6.849,1.193,1.822,2.787,4.408,3.953,6.266v.064l.073.109-.118.082v.282l.1,1.566.911,13.525a5.459,5.459,0,0,0-.82-.173,6.736,6.736,0,0,0-1.2-.082c-.783-3.078-2.942-5.956-3.324-9.171a6.89,6.89,0,0,1-.064-.965c0-2.031.537-4.062.492-6.084a9.244,9.244,0,0,0,0-1.12h0v-.31a9.107,9.107,0,0,0-4.973-6.922c-.911-.464-1.94-.774-2.851-1.284-2.095-1.175-3.434-3.3-5.337-4.745a5.874,5.874,0,0,0-5.109-1.111,23.35,23.35,0,0,0-2.5.519h0a22.43,22.43,0,0,0-5.692,2.359c-.237.146-.483.291-.71.464a3.179,3.179,0,0,0-1.148,1.339,3.555,3.555,0,0,0-.182,1.448v1.066c-.109,5.938-6.512,10.556-7.04,16.394v1.057h0v.465c.091,2.55,1.412,4.918,1.658,7.459v.674a11.288,11.288,0,0,1-.656,3.415,9.812,9.812,0,0,0-2.313.911c-1.94,1.248-5.465,3.415-6.74,7.55a10.977,10.977,0,0,0-.492,3.315,69.268,69.268,0,0,1-1.084,11.84,23.3,23.3,0,0,1-.683,2.915.654.654,0,0,0,0,.282l-.765,10.018-.146,1.767-.191,2.514s.055.155.137.41.209.692.31,1.157a6.311,6.311,0,0,1,.1,2.6,1.821,1.821,0,0,1-.546.911l-.064.073a7.713,7.713,0,0,0-.583,2.55c-.073.528-.128,1.1-.191,1.739-.373,3.953-.61,9.882-.747,14.781s-.182,8.652-.182,8.652a9.793,9.793,0,0,0,1.995.984,4.25,4.25,0,0,0-.155.41,19.077,19.077,0,0,0-1.211,5.1c-.319,3.643.7,7.714,5.8,9.809a8.108,8.108,0,0,0,1,.337,3.161,3.161,0,0,0,2.541-.155v.647c.055.911.1,1.73.118,2.432.164,4.344,1.239,11.949,1.239,11.949a15.693,15.693,0,0,1,.046,4.044c-.328.938,0,4.654,0,4.654s1.129,1.821,0,2.8-1.439,5.592-1.12,6.211a.4.4,0,0,0,0,.073c.246,1.539-1.148,24.463-1.148,24.463s-1.311,3.506-2.35,7.149-1.821,7.222-.847,7.905a7.739,7.739,0,0,0,2.942.792v.464a13.542,13.542,0,0,1-.647,3.853c-.446.628-.911,5.528-1.138,8.2v.292a26.724,26.724,0,0,0-1.2,3.479s-3.552,8.9-2.35,11.23a1.822,1.822,0,0,0,.446.546h0a.673.673,0,0,0,.118.109c1.712,1.366,6,1.657,7.559,1.721l-.055,2.2v.155h2.031v-.055c0-.282.046-1.557.109-3.27v-1.694a13.659,13.659,0,0,0,.911-4.964,21.619,21.619,0,0,1,.783-5.756,15.487,15.487,0,0,1,1.029-2.805,12.8,12.8,0,0,0-.255-5.71,3.963,3.963,0,0,0-.729-1.284,2.031,2.031,0,0,0,0-.237v-.51a20.992,20.992,0,0,1,.474-4.763.174.174,0,0,1,0-.073,1.38,1.38,0,0,1,.091-.382v-.082h.656c2.013.064,3.5.064,3.5.064s1.612-8.2,1.448-11.84V741.9a46.127,46.127,0,0,1,.974-8.37l1.284-12.568a6.73,6.73,0,0,1,0-3.734c.4-.911,1.221-2.732,1.822-3.962.264-.574.483-1.02.574-1.211v-.1a2.731,2.731,0,0,1-.574-.291h0c-.528-.355-.993-1.038.574-2.04,2.414-1.557,1.612-5.465,1.612-5.465a2.8,2.8,0,0,1,.128-2.641c.838-1.239,0-5.9,0-5.9a19.241,19.241,0,0,0,1.649-3.88c.6-1.822,2.113-10.929,2.823-15.328.237-1.439.383-2.368.383-2.368v.474h0l.2,2.067v.273l.364,3.916s.747,10.292.282,14.326a.175.175,0,0,1,0,.073,4.445,4.445,0,0,1-.273,1.221c-.847,1.94-.692,9.618-.647,11.312v.346a5.992,5.992,0,0,0-.455,2.623h0a1.73,1.73,0,0,0,.292.783,1.969,1.969,0,0,1,.292,1.211h0v.537a10.344,10.344,0,0,1-.565,2.1s-.911,2.268-.537,3.452h0a1.221,1.221,0,0,0,.219.419,1.029,1.029,0,0,1,.118.446h0c.3,2.5-.474,13.552-.911,19.59-.182,2.386-.319,4-.319,4l-1.275,13.2.128.082c.146.109.419.282.783.5h0l-.055.4c-.182,1.275-.428,2.732-.692,3.88a2.424,2.424,0,0,0-.064.246,3.569,3.569,0,0,0-1.366.547c-2.732,4.809-1.512,8.616,0,9.727a3.87,3.87,0,0,1,.911,2.268l.373,4.791v.556a1.42,1.42,0,0,0,.073.437l.118,1.448.155,2.022h1.229v-2.3h.073c1.949.073,5.082.155,6.457.045h.364a.709.709,0,0,0,.219-.064c.719-.346,2.532-5.465.911-6.63s-1.986-4.444-1.986-4.444c-.146-.437-.282-.847-.428-1.239a2.2,2.2,0,0,1,0-.246,20.487,20.487,0,0,1,.191-4.262,33.767,33.767,0,0,0,.428-5.091c0-.146,0-.282,0-.428V758.6a5.459,5.459,0,0,0,.829-.264h.064a5.882,5.882,0,0,0,1.384-.82l4.508-20.182.474-2.35,2.732-13.343s-.956-4.654,0-5.464c.355-.282.455-1.475.428-2.878a46.754,46.754,0,0,0-.428-5.465s1.284-2.013,1.931-3.26,0-4.5,0-4.5l1.284-7.45a70.383,70.383,0,0,1,4.991-16.312c2.6-5.464.911-20.282-.756-28.169l-.137-.592,2.814-1.366.392-.182c1.321-.619,2.732-1.257,3.971-1.822h.082q1.34-.583,2.732-1.029a3.975,3.975,0,0,1,.847-.173C586.476,642.7,579.718,630.917,579.718,630.917Zm-50.292,25.264h.665c-.082.146-.155.291-.228.446a2.4,2.4,0,0,0-.128.264,15.008,15.008,0,0,0-.656,1.539c.073-.556.164-1.157.264-1.822Zm-1.821,9.69v-.055a.2.2,0,0,0-.064-.173l-.109-.355c.228-.073.464-.146.7-.237h0v.128c0,.046-.046.346-.064.519h0v.483c0,.137-.073.519-.1.774l-.219-.692c-.055-.164-.091-.291-.137-.41Z" transform="translate(-518.57 -548.428)" fill="url(#linear-gradient)"/>
      <path id="Path_22" data-name="Path 22" d="M580.5,571.391l-4.007,1.43-1.457-2.423c-1.12-1.821-2.668-4.4-3.807-6.248-2.013-3.251.619-8.2.619-8.2s.464-4.955,2.168-6.5,2.168,6.5,2.168,6.5c6.8,3.087,3.16,10.364,3.16,10.364L580,569.2Z" transform="translate(-523.201 -548.502)" fill="#be6f72"/>
      <path id="Path_23" data-name="Path 23" d="M580.944,573.335l-4.007,1.43-1.457-2.423v-.209a7.013,7.013,0,0,1,4.982-.984Z" transform="translate(-523.649 -550.447)" opacity="0.1"/>
      <path id="Path_24" data-name="Path 24" d="M574.36,589.665l2.013-1.7-1.011-15.319a6.375,6.375,0,0,1,9.053,2.049,39.446,39.446,0,0,0,0,4.335c.155.911-1.084,1.821,0,2.732s0,4.026,0,4.026a13.968,13.968,0,0,0,1.995,2.787c.774.619,1.548,5.729,0,6.812s-4.49,3.561-4.49,4.645-3.707,3.707-3.707,3.707l-3.27-4.317Z" transform="translate(-523.549 -550.493)" fill="#0d98ba"/>
      <path id="Path_25" data-name="Path 25" d="M526.057,691.636c-7.5-3.178-5.838-10.929-4.426-14.863a22.307,22.307,0,0,1,.993-2.313l4.208-2.559s.856,2.195,1.776,5.137C530.738,683.831,533.188,694.66,526.057,691.636Z" transform="translate(-518.734 -559.448)" fill="#be6f72"/>
      <path id="Path_26" data-name="Path 26" d="M536.969,771.243a12.613,12.613,0,0,0-1.12,3.133,22.286,22.286,0,0,0-.465,5.328,20.319,20.319,0,0,0,.137,2.049L527.16,787.5s.045-.674.128-1.667c.219-2.632.665-7.514,1.093-8.142a13.654,13.654,0,0,0,.628-3.843c.127-1.594.182-3.069.182-3.069S539.227,767.008,536.969,771.243Z" transform="translate(-519.336 -568.134)" fill="#be6f72"/>
      <path id="Path_27" data-name="Path 27" d="M558.788,775.92s0,1.594-.055,3.461a35.522,35.522,0,0,1-.4,5.073,20.255,20.255,0,0,0-.191,4.244c.055,1.822.191,3.525.191,3.525s-8.534-8.06-7.669-8.7a4.035,4.035,0,0,0,.683-1.822c.255-1.129.492-2.6.665-3.871.209-1.5.337-2.732.337-2.732Z" transform="translate(-521.429 -568.658)" fill="#be6f72"/>
      <path id="Path_28" data-name="Path 28" d="M537.15,771.243a12.611,12.611,0,0,0-1.12,3.133,67.409,67.409,0,0,1-6.84-.528c.128-1.594.182-3.069.182-3.069S539.409,767.008,537.15,771.243Z" transform="translate(-519.517 -568.134)" opacity="0.1"/>
      <path id="Path_29" data-name="Path 29" d="M558.926,775.924s0,1.594-.055,3.461c-2.659.674-5.392-.683-6.721-1.5.209-1.5.337-2.732.337-2.732Z" transform="translate(-521.567 -568.663)" opacity="0.1"/>
      <path id="Path_30" data-name="Path 30" d="M574.046,685.9a72.1,72.1,0,0,0-4.8,16.257l-1.239,7.423s.619,3.251,0,4.49-1.822,3.251-1.822,3.251.911,7.587,0,8.361,0,5.41,0,5.41l-3.1,15.638-4.326,20.091c-4.18,3.406-9.736-.911-9.736-.911l1.229-13.16s1.822-23.06,1.084-23.989.31-3.862.31-3.862,1.084-2.787.31-3.871.155-3.406.155-3.406-.31-9.445.619-11.612,0-15.574,0-15.574l-.392-4.171-.209-2.313v-.228l-.373,2.368c-.683,4.363-2.14,13.415-2.732,15.282a19.256,19.256,0,0,1-1.594,3.862s.811,4.645,0,5.883a2.878,2.878,0,0,0-.118,2.632s.774,3.871-1.548,5.464,0,2.322,0,2.322-1.7,3.716-2.322,5.264a6.821,6.821,0,0,0,0,3.707l-1.239,12.541a45.538,45.538,0,0,0-.911,8.825c.155,3.552-1.393,11.758-1.393,11.758s-11.913,0-13.752-1.393,3.078-15.009,3.078-15.009,1.393-23.834,1.084-24.454,0-5.264,1.084-6.193,0-2.787,0-2.787a22.757,22.757,0,0,1,0-4.645,16.8,16.8,0,0,0-.055-4.025s-1.029-7.577-1.184-11.913-.911-14.089-.911-14.089.8-6.02.911-8.9a10.338,10.338,0,0,1,1.1-3.643,33.315,33.315,0,0,1,2.3-4.053s36.685-10.829,38.252-9.745c.4.282,1,2.213,1.585,5.045C574.948,665.724,576.551,680.433,574.046,685.9Z" transform="translate(-519.209 -557.735)" fill="#0d98ba"/>
      <path id="Path_31" data-name="Path 31" d="M574.046,685.9a72.1,72.1,0,0,0-4.8,16.257l-1.239,7.423s.619,3.251,0,4.49-1.822,3.251-1.822,3.251.911,7.587,0,8.361,0,5.41,0,5.41l-3.1,15.638-4.326,20.091c-4.18,3.406-9.736-.911-9.736-.911l1.229-13.16s1.822-23.06,1.084-23.989.31-3.862.31-3.862,1.084-2.787.31-3.871.155-3.406.155-3.406-.31-9.445.619-11.612,0-15.574,0-15.574l-.392-4.171-.209-2.313v-.228l-.373,2.368c-.683,4.363-2.14,13.415-2.732,15.282a19.256,19.256,0,0,1-1.594,3.862s.811,4.645,0,5.883a2.878,2.878,0,0,0-.118,2.632s.774,3.871-1.548,5.464,0,2.322,0,2.322-1.7,3.716-2.322,5.264a6.821,6.821,0,0,0,0,3.707l-1.239,12.541a45.538,45.538,0,0,0-.911,8.825c.155,3.552-1.393,11.758-1.393,11.758s-11.913,0-13.752-1.393,3.078-15.009,3.078-15.009,1.393-23.834,1.084-24.454,0-5.264,1.084-6.193,0-2.787,0-2.787a22.757,22.757,0,0,1,0-4.645,16.8,16.8,0,0,0-.055-4.025s-1.029-7.577-1.184-11.913-.911-14.089-.911-14.089.8-6.02.911-8.9a10.338,10.338,0,0,1,1.1-3.643,33.315,33.315,0,0,1,2.3-4.053s36.685-10.829,38.252-9.745c.4.282,1,2.213,1.585,5.045C574.948,665.724,576.551,680.433,574.046,685.9Z" transform="translate(-519.209 -557.735)" opacity="0.15"/>
      <circle id="Ellipse_160" data-name="Ellipse 160" cx="10.683" cy="10.683" r="10.683" transform="translate(21.558 12.215)" fill="#a1616a"/>
      <path id="Path_32" data-name="Path 32" d="M573.873,657.828c-1.229.628-2.049,1.065-2.049,1.065s-17.3,8.2-22.277,7.741c-3.816-.364-13.552-.164-17.787-.055a33.341,33.341,0,0,1,2.3-4.053s36.685-10.829,38.252-9.745C572.662,653.065,573.263,655,573.873,657.828Z" transform="translate(-519.747 -557.735)" opacity="0.1"/>
      <path id="Path_33" data-name="Path 33" d="M543.76,592.024s-9.909,1.548-12.222,3.1-6.967,4.49-6.967,10.829a61.619,61.619,0,0,1-1.7,14.709c-.619,1.822,9.754,16.867,9.754,16.867l-3.716,22.769s14.873-.464,19.818,0S571,652.553,571,652.553s10.21-5.41,12.377-5.565-4.335-11.922-4.335-11.922-10.018-19.035-8.352-22.131a42.307,42.307,0,0,0,2.942-7.587l-1.821-15.783a6.075,6.075,0,0,0-5.109.774c-2.322,1.7-10.219.774-10.219.774Z" transform="translate(-518.951 -552.077)" fill="#0d98ba"/>
      <path id="Path_34" data-name="Path 34" d="M526.718,621.791l-3.871,1.084-1.075,14.572s1.384,3.871,0,5.109-1.7,27.705-1.7,27.705a10.1,10.1,0,0,0,9.745.774s-.774-2.942,1.548-13.661,2.3-16.038,2.3-16.038,0-13.306,1.084-15.483,0-7.586,0-7.586-2.168-2.942-2.013-4.026S526.718,621.791,526.718,621.791Z" transform="translate(-518.704 -554.294)" opacity="0.1"/>
      <path id="Path_35" data-name="Path 35" d="M528.726,677.037a9.864,9.864,0,0,1-6.976-.264,22.319,22.319,0,0,1,.993-2.313l4.208-2.559S527.806,674.095,528.726,677.037Z" transform="translate(-518.854 -559.448)" opacity="0.1"/>
      <path id="Path_36" data-name="Path 36" d="M526.468,621.791l-3.871,1.084-1.084,14.572s1.393,3.871,0,5.109-1.7,27.705-1.7,27.705a10.118,10.118,0,0,0,9.754.774s-.774-2.942,1.548-13.661,2.313-16.038,2.313-16.038,0-13.306,1.084-15.483,0-7.586,0-7.586-2.158-2.942-2-4.026S526.468,621.791,526.468,621.791Z" transform="translate(-518.68 -554.294)" fill="#0d98ba"/>
      <path id="Path_37" data-name="Path 37" d="M569.846,625.09s-2.013,17.3-7.9,20.583C562,645.673,575.11,641.957,569.846,625.09Z" transform="translate(-522.441 -555.27)" opacity="0.1"/>
      <path id="Path_38" data-name="Path 38" d="M538.16,626.79s7.286,3.561,5.574,6.029S538.16,626.79,538.16,626.79Z" transform="translate(-520.318 -555.422)" opacity="0.1"/>
      <path id="Path_39" data-name="Path 39" d="M538.16,634.6s4.645,4.8,3.716,6.5S538.16,634.6,538.16,634.6Z" transform="translate(-520.318 -556.119)" opacity="0.1"/>
      <path id="Path_40" data-name="Path 40" d="M579.29,590.93s1.821,3.1,1.985,5.109S579.29,590.93,579.29,590.93Z" transform="translate(-523.989 -552.222)" opacity="0.1"/>
      <path id="Path_41" data-name="Path 41" d="M579.29,586.306s.911-.774,3.242,0S579.29,586.306,579.29,586.306Z" transform="translate(-523.989 -551.778)" opacity="0.1"/>
      <path id="Path_42" data-name="Path 42" d="M568.149,685.344a21.466,21.466,0,0,1-11.312-1.448l-1.958,4.991-.209-2.313c.319-1.94.911-4.016,2.168-4.554A18.735,18.735,0,0,0,568.149,685.344Z" transform="translate(-521.792 -560.351)" opacity="0.1"/>
      <path id="Path_43" data-name="Path 43" d="M534.62,692.81s9.517,1.995,12.186,1.621Z" transform="translate(-520.002 -561.314)" opacity="0.1"/>
      <path id="Path_44" data-name="Path 44" d="M535.7,695.548s4.062-.173,6.093.637Z" transform="translate(-520.099 -561.557)" opacity="0.1"/>
      <path id="Path_45" data-name="Path 45" d="M536.21,697.39a35.521,35.521,0,0,0,5.628.756Z" transform="translate(-520.144 -561.723)" opacity="0.1"/>
      <path id="Path_46" data-name="Path 46" d="M536,720.671c.182-.118,8.133-1.967,9.107-.637Z" transform="translate(-520.125 -563.701)" opacity="0.1"/>
      <path id="Path_47" data-name="Path 47" d="M536,723.425s6.913-.811,7.086,0S536,723.425,536,723.425Z" transform="translate(-520.125 -564.014)" opacity="0.1"/>
      <path id="Path_48" data-name="Path 48" d="M536,725.761s7.377-1.512,8.2-1.157S536,725.761,536,725.761Z" transform="translate(-520.125 -564.147)" opacity="0.1"/>
      <path id="Path_49" data-name="Path 49" d="M535.521,782.7l-8.361,5.747s.045-.674.128-1.667a22.924,22.924,0,0,1,4.281-6.985c1.885-.483,3.078,0,3.816.856A20.317,20.317,0,0,0,535.521,782.7Z" transform="translate(-519.336 -569.06)" opacity="0.1"/>
      <path id="Path_50" data-name="Path 50" d="M535.979,787.863a20.762,20.762,0,0,0-1.739,8.534,13.16,13.16,0,0,1-1.822,6.876,6.634,6.634,0,0,1-.583.838s-5.811,0-7.841-1.73a1.977,1.977,0,0,1-.537-.647c-1.166-2.323,2.259-11.2,2.259-11.2a24.654,24.654,0,0,1,5.464-10.5C537.719,778.345,535.979,787.863,535.979,787.863Z" transform="translate(-518.984 -569.08)" fill="#35323e"/>
      <path id="Path_51" data-name="Path 51" d="M532.544,804.326a6.6,6.6,0,0,1-.583.838s-5.811,0-7.841-1.73c1-3.306,4.189-13.315,5.683-11.612S532.207,801.074,532.544,804.326Z" transform="translate(-519.065 -570.133)" opacity="0.1"/>
      <path id="Path_52" data-name="Path 52" d="M532.451,792.441l-.4,15.009H534s.31-13.151,1.184-14.991S532.451,792.441,532.451,792.441Z" transform="translate(-519.773 -570.134)" fill="#35323e"/>
      <path id="Path_53" data-name="Path 53" d="M558.333,792.834s-8.534-8.06-7.669-8.7a4.033,4.033,0,0,0,.683-1.822c1.639-.291,4.445.4,6.794,6.949C558.2,791.131,558.333,792.834,558.333,792.834Z" transform="translate(-521.429 -569.297)" opacity="0.1"/>
      <path id="Path_54" data-name="Path 54" d="M559.4,801.86a1.183,1.183,0,0,1-.209.064,59.393,59.393,0,0,1-6.767,0A1.466,1.466,0,0,1,551,800.467V798.5c-.1-2.286-.383-5.009-1.193-5.628-1.448-1.1-2.6-4.9,0-9.69,0,0,4.991-3.807,8.588,7.641,0,0,.346,3.27,1.913,4.435S560.091,801.514,559.4,801.86Z" transform="translate(-521.219 -569.325)" fill="#35323e"/>
      <path id="Path_55" data-name="Path 55" d="M559.458,802.869a59.45,59.45,0,0,1-6.767,0,1.466,1.466,0,0,1-1.421-1.457v-1.967c.628-2.732,1.53-5.628,2.732-6.275C553.92,793.16,557.445,792.76,559.458,802.869Z" transform="translate(-521.488 -570.271)" opacity="0.1"/>
      <path id="Path_56" data-name="Path 56" d="M455.38,701.666l.929,12.477H457.5V700.61Z" transform="translate(-426.199 -479.113)" fill="#35323e"/>
      <path id="Path_57" data-name="Path 57" d="M551.721,554.88a21.294,21.294,0,0,0-9.526,3.06,3.953,3.953,0,0,0-1.822,1.822,6.042,6.042,0,0,0-.146,2.222c.1,6.375-7.04,11.248-6.812,17.641.091,2.541,1.366,4.9,1.594,7.432.392,4.217-2.1,8.106-4.5,11.6a9.589,9.589,0,0,0,6.785-2.25,51.43,51.43,0,0,1,.911,25.938h3.424a2.636,2.636,0,0,1,1,.128,2.377,2.377,0,0,1,.792.592c3.2,3.179,5.346,7.887,4.117,12.241l7.286-2.732a21.863,21.863,0,0,0,5.037-2.4,7.286,7.286,0,0,0,3.105-4.481c.191-1.111.137-2.45,1.048-3.1a5.912,5.912,0,0,1,1.439-.528c2-.71,2.887-3.024,3.288-5.1a29.135,29.135,0,0,0,.465-7.76c-.319-4.344-1.6-8.761-.546-13,.6-2.377,1.931-4.554,2.04-7.058.173-4.053-3-7.55-3.47-11.585-.328-2.805.683-5.647.355-8.461a9.108,9.108,0,0,0-4.781-6.9c-.911-.464-1.876-.774-2.732-1.275-2.022-1.175-3.306-3.288-5.137-4.736s-4.891-1.995-6.266-.109Z" transform="translate(-519.635 -549.004)" opacity="0.1"/>
      <path id="Path_58" data-name="Path 58" d="M551.721,554.37a21.292,21.292,0,0,0-9.526,3.06,3.952,3.952,0,0,0-1.822,1.822,6.042,6.042,0,0,0-.146,2.222c.1,6.375-7.04,11.248-6.812,17.641.091,2.541,1.366,4.909,1.594,7.432.392,4.226-2.1,8.106-4.5,11.6a9.59,9.59,0,0,0,6.821-2.222,51.429,51.429,0,0,1,.911,25.938h3.425a2.637,2.637,0,0,1,1,.128,2.379,2.379,0,0,1,.792.592c3.2,3.179,5.346,7.887,4.116,12.241l7.286-2.732a21.865,21.865,0,0,0,5.036-2.4,7.286,7.286,0,0,0,3.106-4.481c.191-1.111.136-2.45,1.047-3.1a5.911,5.911,0,0,1,1.439-.528c2-.71,2.887-3.024,3.288-5.1a29.144,29.144,0,0,0,.464-7.76c-.319-4.344-1.6-8.761-.546-13,.6-2.377,1.931-4.6,2.04-7.058.173-4.053-3-7.55-3.47-11.585-.328-2.805.683-5.647.355-8.461a9.107,9.107,0,0,0-4.781-6.9c-.911-.464-1.876-.774-2.732-1.275-2.022-1.175-3.306-3.288-5.137-4.736s-4.891-1.995-6.266-.109Z" transform="translate(-519.635 -548.959)" fill="#a26565"/>
      <g id="Group_6" data-name="Group 6" transform="translate(10.929 10.958)" opacity="0.1">
        <path id="Path_59" data-name="Path 59" d="M541.2,560.46v.428C541.19,560.751,541.2,560.606,541.2,560.46Z" transform="translate(-531.518 -560.46)"/>
        <path id="Path_60" data-name="Path 60" d="M570.88,576.221a39.249,39.249,0,0,0,.41-5.911,39.1,39.1,0,0,0-.41,5.911Z" transform="translate(-534.167 -561.339)"/>
        <path id="Path_61" data-name="Path 61" d="M535.323,586.888c-.209-2.3-1.284-4.472-1.539-6.758a8.384,8.384,0,0,0-.055,1.266c.091,2.514,1.339,4.854,1.585,7.359a9.1,9.1,0,0,0,.009-1.867Z" transform="translate(-530.852 -562.216)"/>
        <path id="Path_62" data-name="Path 62" d="M572.439,596.97a15.781,15.781,0,0,0-.383,4.618,14.276,14.276,0,0,1,.383-2.678c.6-2.377,1.931-4.6,2.04-7.058a7.9,7.9,0,0,0-.064-1.311C574.142,592.78,572.986,594.793,572.439,596.97Z" transform="translate(-534.27 -563.145)"/>
        <path id="Path_63" data-name="Path 63" d="M537.337,597.83a9.681,9.681,0,0,1-5.464,2.24c-.428.656-.911,1.312-1.3,1.94a9.59,9.59,0,0,0,6.767-2.2,51.385,51.385,0,0,1,2.159,13.9,51.159,51.159,0,0,0-2.159-15.874Z" transform="translate(-530.57 -563.795)"/>
        <path id="Path_64" data-name="Path 64" d="M570.5,619.936c-.41,2.086-1.293,4.4-3.3,5.1a5.57,5.57,0,0,0-1.439.537c-.911.647-.856,1.985-1.047,3.087a7.286,7.286,0,0,1-3.106,4.481,21.862,21.862,0,0,1-5.036,2.4l-6.949,2.6a9.512,9.512,0,0,1-.337,2.067l7.286-2.732a21.86,21.86,0,0,0,5.037-2.4,7.286,7.286,0,0,0,3.106-4.481c.191-1.111.137-2.45,1.047-3.1a5.91,5.91,0,0,1,1.439-.528c2-.71,2.887-3.024,3.3-5.1a29.5,29.5,0,0,0,.519-6.576A30.474,30.474,0,0,1,570.5,619.936Z" transform="translate(-532.241 -565.354)"/>
        <path id="Path_65" data-name="Path 65" d="M544.259,627.009a2.515,2.515,0,0,0-.792-.592,2.641,2.641,0,0,0-1-.128h-3.033c-.118.647-.246,1.293-.392,1.931h3.424a2.64,2.64,0,0,1,1,.128,2.377,2.377,0,0,1,.792.592,14.681,14.681,0,0,1,4.417,8.7C549.067,633.776,547.073,629.8,544.259,627.009Z" transform="translate(-531.326 -566.334)"/>
      </g>
      <path id="Path_66" data-name="Path 66" d="M526.12,640.949s2.732-1.166,3.388,0S526.12,640.949,526.12,640.949Z" transform="translate(-519.243 -556.639)" opacity="0.1"/>
      <path id="Path_67" data-name="Path 67" d="M527.17,643.109s2.732-1.166,3.388,0S527.17,643.109,527.17,643.109Z" transform="translate(-519.337 -556.832)" opacity="0.1"/>
    </g>
    <path id="Path_68" data-name="Path 68" d="M311.82,148.7l.246,1.913,8.315,1.175s.683-.51,1.749-1.2c1.976-1.284,5.273-3.215,8.1-3.761,4.344-.856,18.215-7.077,13.734-7.486s-4,.519-4,.519-4.918-4.827-10.018-.41c-3.852,3.352-12.332,6.949-16.184,8.488Z" transform="translate(-114.56 -95.176)" fill="#efb7b9"/>
    <path id="Path_69" data-name="Path 69" d="M347.065,125.478a14.472,14.472,0,0,1,3.98-1.02,4.882,4.882,0,0,1,3.8,1.266c.537.556.911,1.266,1.4,1.822,2.532,2.732,7.45.683,10.5,2.8,1.876,1.293,2.459,3.752,3.124,5.938s1.876,4.6,4.117,5.064a12.212,12.212,0,0,0,3.251-.127,3.188,3.188,0,0,1,2.914,1.075c1.038,1.566-.392,4.208,1.111,5.328,1.339.993,3.78-.4,4.718.993a2.068,2.068,0,0,1-.319,2.277,15.817,15.817,0,0,0-1.53,1.913,2.905,2.905,0,0,0,2.86,4.244c.911-.091,1.958-.638,2.787-.164a2,2,0,0,1,.838,1.557,4.089,4.089,0,0,1-3.643,4.326c-1.612.1-3.1-.774-4.554-1.512s-3.133-1.366-4.636-.756a7.4,7.4,0,0,0-1.867,1.321,20.582,20.582,0,0,1-5.729,3.4c-1.822.71-3.962,1.148-5.72.255-1.976-1.011-3-3.479-5.091-4.226s-4.49.647-6.494,1.822-4.69,2.186-6.5.719-1.348-4.736-2.541-6.94a6.748,6.748,0,0,0-1.9-2.095c-1.339-1.038-2.86-1.821-4.2-2.823a7.022,7.022,0,0,1-2.878-4.026c-.392-1.995.565-4,1.639-5.72s2.341-3.415,2.732-5.41c.255-1.494,0-3.051.337-4.554a5.592,5.592,0,0,1,3.643-3.825c.984-.337,1.166-.255,1.658-1.12A3.579,3.579,0,0,1,347.065,125.478Z" transform="translate(-116.609 -94.002)" fill="#f86d70"/>
    <g id="Group_7" data-name="Group 7" transform="translate(218.214 48.907)" opacity="0.1">
      <path id="Path_70" data-name="Path 70" d="M384.854,144.72a7.6,7.6,0,0,1,.155,2.669,7.076,7.076,0,0,1-.155-2.669Z" transform="translate(-339.287 -144.72)"/>
      <path id="Path_71" data-name="Path 71" d="M388.95,155.351a2.867,2.867,0,0,0-.291.975,2.96,2.96,0,0,1,.1-2.468,15.829,15.829,0,0,1,1.53-1.913,3,3,0,0,0,.446-.865.652.652,0,0,1,.064.082,2.031,2.031,0,0,1-.319,2.277,16.95,16.95,0,0,0-1.53,1.913Z" transform="translate(-339.612 -145.288)"/>
      <path id="Path_72" data-name="Path 72" d="M337.571,152.835c1.339,1.02,2.86,1.822,4.2,2.823a6.868,6.868,0,0,1,1.9,2.095c1.193,2.2.592,5.364,2.541,6.94s4.508.483,6.5-.719,4.3-2.614,6.494-1.821,3.115,3.215,5.091,4.226c1.758.911,3.889.455,5.72-.255a20.584,20.584,0,0,0,5.729-3.4,7.4,7.4,0,0,1,1.867-1.321c1.5-.61,3.2,0,4.636.756s2.933,1.612,4.554,1.512a4.117,4.117,0,0,0,3.643-3.643,2.893,2.893,0,0,1,.191.783A4.08,4.08,0,0,1,387,165.139c-1.621.1-3.106-.774-4.554-1.512s-3.142-1.366-4.645-.756a7.515,7.515,0,0,0-1.821,1.321,20.709,20.709,0,0,1-5.729,3.4c-1.822.71-3.971,1.148-5.72.255-1.985-1.011-3-3.479-5.1-4.226s-4.49.647-6.485,1.821-4.69,2.177-6.5.719c-1.958-1.576-1.357-4.736-2.55-6.94a6.64,6.64,0,0,0-1.9-2.095c-1.33-1.038-2.851-1.822-4.2-2.823a6.967,6.967,0,0,1-2.869-4.026,4.684,4.684,0,0,1-.091-1.066A7.368,7.368,0,0,0,337.571,152.835Z" transform="translate(-334.828 -145.121)"/>
    </g>
    <path id="Path_73" data-name="Path 73" d="M341.455,203.329l-3.015.647s2.978,4.891,7.559,1.685S341.455,203.329,341.455,203.329Z" transform="translate(-116.936 -101.034)" fill="#4c4981"/>
    <path id="Path_74" data-name="Path 74" d="M341.455,203.329l-3.015.647s2.978,4.891,7.559,1.685S341.455,203.329,341.455,203.329Z" transform="translate(-116.936 -101.034)" opacity="0.1"/>
    <path id="Path_75" data-name="Path 75" d="M413.65,252.648s4.18,2.158,8.078,4.663c2.8,1.822,5.464,3.752,6.311,5.228,2.077,3.525,12.159,7.332,12.159,7.332l10.018,7.623c2.359.783,4.654,3.643,5.592,4.927.292.392.446.638.446.638l4.016-.519,2.113-2.732s.537-6.056-3.643-5.984a5.965,5.965,0,0,1-2.35-.6c-4.481-1.985-10.756-8.2-10.756-8.2s-10.665-13.324-13.853-13.761a5.228,5.228,0,0,1-1-.255c-3.242-1.138-7.887-5.319-7.887-5.319Z" transform="translate(-123.648 -104.824)" fill="#efb7b9"/>
    <path id="Path_76" data-name="Path 76" d="M368.229,294.082c1.056,6.375,5.911,18.616,7.468,21.166,1.931,3.16,2.951,9.481,2.951,9.481l.565,4.39a5.239,5.239,0,0,0,.629,1.758,10.019,10.019,0,0,0,.556.911l8.033-2.468s-.464-1.821-1.166-3.971-1.758-4.781-2.732-5.765c-1.958-1.931-2.259-8.725-2.259-8.725s-1.63-13.078-2.131-14.718a22.367,22.367,0,0,1-.911-4.827c-.073-.911-.127-1.876-.137-3.015a61.925,61.925,0,0,0-1.266-9.709l-9.372,1.7-.246,10.465A7.013,7.013,0,0,0,368.229,294.082Z" transform="translate(-119.576 -107.76)" fill="#efb7b9"/>
    <path id="Path_77" data-name="Path 77" d="M459.93,285.1c.291.392.446.638.446.638l4.016-.519,2.113-2.732s.537-6.056-3.643-5.984a5.965,5.965,0,0,1-2.35-.6c-.337,1.822,1.694,3.315,1.694,3.315s.838.61.638,3.461C462.726,284.616,461,285.026,459.93,285.1Z" transform="translate(-127.779 -107.52)" opacity="0.1"/>
    <path id="Path_78" data-name="Path 78" d="M459.45,284.694c.264.975,2.8,2.414,4.554,3.306.865.446,1.539.756,1.676.82.41.2,2.532-2.168,2.823-4.071s5.364-7.851,5.364-7.851a21.308,21.308,0,0,0,1.885-7.432c.191-2.6-.911-2.8-2.159-2.213a8.636,8.636,0,0,0-2.414,1.894,6.374,6.374,0,0,1-3.115,1.612,15.265,15.265,0,0,0-4.5,1.922c-1.229.792-2.423,1.758-2.641,2.614-.464,1.867,1.667,3.452,1.667,3.452s.838.619.647,3.461S459.423,284.6,459.45,284.694Z" transform="translate(-127.736 -106.724)" fill="#ff6484"/>
    <path id="Path_79" data-name="Path 79" d="M464.45,288c.865.446,1.539.756,1.676.82.41.2,2.532-2.168,2.823-4.071s5.364-7.851,5.364-7.851a21.3,21.3,0,0,0,1.885-7.432c.191-2.6-.911-2.8-2.158-2.213-.209,2.058-.729,6.056-1.822,8.142C471,277.873,465.862,285.842,464.45,288Z" transform="translate(-128.182 -106.724)" opacity="0.1"/>
    <path id="Path_80" data-name="Path 80" d="M381.053,335.244a1.185,1.185,0,0,1-.073.155,10.025,10.025,0,0,0,.556.911l8.033-2.468s-.465-1.821-1.166-3.971c-3.179-.911-7.732,4.672-7.732,4.672Z" transform="translate(-120.705 -112.328)" opacity="0.1"/>
    <path id="Path_81" data-name="Path 81" d="M380.511,341.262s6.694,2.35,9.718,1.985c2.286-.273,2.386-1.339,2.231-3.525-.055-.692-.128-1.5-.164-2.441-.155-3.871-1.712-4.645-1.712-4.645-2.55-6.694-9.9,2.286-9.9,2.286l.392.729a7.979,7.979,0,0,0-.756,3.643A10.361,10.361,0,0,0,380.511,341.262Z" transform="translate(-120.673 -112.362)" fill="#ff6484"/>
    <path id="Path_82" data-name="Path 82" d="M380.511,342.158s6.694,2.35,9.718,1.985c2.286-.273,2.386-1.339,2.231-3.525A7.077,7.077,0,0,1,387,342.194a21.643,21.643,0,0,1-6.676-1.994A10.353,10.353,0,0,0,380.511,342.158Z" transform="translate(-120.674 -113.259)" opacity="0.1"/>
    <path id="Path_83" data-name="Path 83" d="M344,162.7l2.6,11.466.528,2.359,4.854.61,4.991.638,5.465-1.976s1.521-5.164.264-9.044a5.71,5.71,0,0,0-2.514-3.315,5.1,5.1,0,0,1-1.047-.82,4.371,4.371,0,0,1-.911-1.248,5.283,5.283,0,0,1-.474-1.822c-.273-3.087,1.685-6.466,1.685-6.466s-11.53-3.934-10.629-1.393c.583,1.648-1.038,4.554-2.25,6.321-.656.984-1.193,1.658-1.193,1.658Z" transform="translate(-117.432 -96.358)" fill="#efb7b9"/>
    <circle id="Ellipse_161" data-name="Ellipse 161" cx="10.009" cy="10.009" r="10.009" transform="translate(226.987 41.922)" opacity="0.1"/>
    <circle id="Ellipse_162" data-name="Ellipse 162" cx="10.009" cy="10.009" r="10.009" transform="translate(226.932 41.548)" fill="#efb7b9"/>
    <path id="Path_84" data-name="Path 84" d="M344.724,201.781a24.266,24.266,0,0,0,2.65,5.674l13.971,3.434,10.018-10.419v-.064c-.31-.975-4.126-13.3-1.366-16.339s1.822-12.058,1.822-12.058-4.991-5.747-5.993-7.131-7.486-2.477-7.486-2.477c.319.437.619.856.911,1.248a12.605,12.605,0,0,1,1.594,3.388,5.046,5.046,0,0,1-.137,3.643,4.371,4.371,0,0,0-.337.911c-1.093,4.781-6.066,4.117-8.051,3.643-.51-.128-.82-.237-.82-.237l-4.763.155-2.987.1s1.357,23.552,1.038,25.428a2.733,2.733,0,0,0-.064,1.1Z" transform="translate(-117.41 -97.391)" fill="#ff6484"/>
    <path id="Path_85" data-name="Path 85" d="M343.674,177.716l8.67-1.138h-.164a8.481,8.481,0,0,1-.82-.228l-4.763.155-2.987.1S343.637,176.988,343.674,177.716Z" transform="translate(-117.397 -98.636)" fill="#925978"/>
    <path id="Path_86" data-name="Path 86" d="M259.12,122.366l3.761.92,5.911-.774,1.548-1.612Z" transform="translate(-23.126 -10.79)" fill="#925978"/>
    <path id="Path_87" data-name="Path 87" d="M265.98,124.16l1.7.419.7-.729Z" transform="translate(-23.738 -11.053)" fill="#925978"/>
    <path id="Path_88" data-name="Path 88" d="M344.709,201.447c2.231.228,4.29.337,4.29.337l11.512-.428V189.325a17.3,17.3,0,0,0-4.636-3.06c-2-.692-4.372-2.814-3.925-8.434a7.938,7.938,0,0,1,.1-1,13.657,13.657,0,0,0,.1-1.885,10.11,10.11,0,0,0-3.188-7.414l-.173-.146-1.876-8.725a2.113,2.113,0,0,0-.373.045c-.656.984-1.193,1.658-1.193,1.658l-1.384,3.033,2.6,11.466-2.987.1s1.357,23.552,1.038,25.428A2.733,2.733,0,0,0,344.709,201.447Z" transform="translate(-117.395 -97.057)" opacity="0.1"/>
    <path id="Path_89" data-name="Path 89" d="M347.451,201.831l11.512-.428V189.381a17.041,17.041,0,0,0-4.608-3.087c-2.122-.738-4.645-3.069-3.825-9.445a10.446,10.446,0,0,0-3.087-9.3l-.173-.146-1.876-8.725a4.08,4.08,0,0,0-2.969,1.7,8.33,8.33,0,0,1-.692.965,1.822,1.822,0,0,1-2.313.692c-1.211-.537-6.43-2.732-7.6-.583S330.42,176.5,330.42,176.5a9.863,9.863,0,0,1,3.388,5.574c.8,3.643,2.14,3.771,2.14,3.771l1.439,10.565s1.311,2.3.337,3.561" transform="translate(-116.22 -97.059)" fill="#444053"/>
    <path id="Path_90" data-name="Path 90" d="M342.84,161.378l1.958,5.874,3.752.328-.173-.146L346.5,158.71a4.08,4.08,0,0,0-2.969,1.7A8.339,8.339,0,0,1,342.84,161.378Z" transform="translate(-117.329 -97.061)" fill="#444053"/>
    <path id="Path_91" data-name="Path 91" d="M311.82,149.711l.246,1.913,8.315,1.175s.683-.51,1.749-1.2c-.911-.2-5.009-1.1-7.177-1.822-.792-.246-1.33-.455-1.348-.6s.055-.164.182-.273Z" transform="translate(-114.56 -96.186)" opacity="0.1"/>
    <path id="Path_92" data-name="Path 92" d="M300.89,161.862s9.417,7.149,15.255,8.306c0,0,8.2,2.432,11.439,5.237l3.543-13.561-2.1-1.485s-2.577,1.594-4.8,1.066-4.663-.838-4.663-.838a36.592,36.592,0,0,0-5.975-1.639c-1.585-.128-.911-2.186.638-3.279a5.218,5.218,0,0,1,.665-.373,2.031,2.031,0,0,0,2.669.6,5.937,5.937,0,0,0,1.548-1.439h0a18.938,18.938,0,0,0,1.749-2.65s-4.909-1.047-7.359-1.822c-.792-.246-1.33-.455-1.348-.592-.073-.565,4.381-2.341,4.381-2.341s-3.816-1.821-5.364-.51c0,0,.993.756.191,1.494s-10.583,8.242-10.583,8.242S295.918,158.656,300.89,161.862Z" transform="translate(-113.385 -95.933)" fill="#444053"/>
    <path id="Path_93" data-name="Path 93" d="M310,155.348l5.21.747a5.211,5.211,0,0,1,.665-.373,2.031,2.031,0,0,0,2.669.6,5.937,5.937,0,0,0,1.548-1.439h0a19.624,19.624,0,0,0,1.43-2.222s-4.918-1.056-7.359-1.822Z" transform="translate(-114.398 -96.359)" opacity="0.1"/>
    <path id="Path_94" data-name="Path 94" d="M310.33,154.886l5.556.792a2.031,2.031,0,0,0,2.668.6c1.594-.911,3.3-4.1,3.3-4.1s-4.909-1.047-7.359-1.822Z" transform="translate(-114.427 -96.316)" fill="#444053"/>
    <path id="Path_95" data-name="Path 95" d="M422.894,245.65l-9.244,6.995s4.18,2.158,8.078,4.663c3.406-2.3,6.621-4.426,9.053-6.375C427.539,249.83,422.894,245.65,422.894,245.65Z" transform="translate(-123.648 -104.82)" opacity="0.1"/>
    <path id="Path_96" data-name="Path 96" d="M368.229,294.075a31.584,31.584,0,0,0,6.776-1.621s1.7-.373,4.235-1.22c-.073-.911-.128-1.876-.137-3.015a61.93,61.93,0,0,0-1.266-9.709l-9.372,1.7-.246,10.465a7.012,7.012,0,0,0,.009,3.4Z" transform="translate(-119.576 -107.753)" opacity="0.1"/>
    <path id="Path_97" data-name="Path 97" d="M349.372,244.71c1.894,2.8,7.04,14.636,7.04,14.636a49.424,49.424,0,0,0,3.916,6.038c2.049,2.587,3.47,8.379,5.027,13.015s-.465,3.761-.237,6.2,9.016-.7,9.016-.7,18-3.962,23.488-14.936,27.45-20.947,31.876-27.131-1.266-3.643-1.038-6.976-2.322-6.157-2.322-6.157-8.279-2.332-9.627-3.962-7.96-5.7-7.96-5.7-6.23-2.732-7.022-3.643-8.2-3.862-10.446-4.426-4.481-3.78-4.481-3.78-1.4.182-3.47-1.822-10.729-3.725-10.729-3.725c-14.818,10.856-25.046,9.308-25.046,9.308l-.237,2.058C339.263,223.252,347.5,241.923,349.372,244.71Z" transform="translate(-117.413 -100.893)" fill="#ff6484"/>
    <path id="Path_98" data-name="Path 98" d="M347.47,213.016s12.751,4.217,25.283-11.366c-14.818,10.856-25.046,9.308-25.046,9.308Z" transform="translate(-117.742 -100.894)" opacity="0.1"/>
    <path id="Path_99" data-name="Path 99" d="M371.65,222.13s17.186,24.8,18.215,25.711S372.552,221.82,371.65,222.13Z" transform="translate(-119.9 -102.721)" opacity="0.1"/>
    <path id="Path_100" data-name="Path 100" d="M362.93,220s11.9,18.479,11.658,20.947C374.588,241,363.067,223.242,362.93,220Z" transform="translate(-119.122 -102.531)" opacity="0.1"/>
    <path id="Path_101" data-name="Path 101" d="M355.211,225.61s2.195,10.337-1.111,16.184Z" transform="translate(-118.334 -103.032)" opacity="0.1"/>
    <path id="Path_102" data-name="Path 102" d="M350.188,226.27s-.146,8.934-1.148,10.774Z" transform="translate(-117.882 -103.091)" opacity="0.1"/>
    <path id="Path_103" data-name="Path 103" d="M287.07,126.49l15.8,6.193-5.783.756Z" transform="translate(-25.62 -11.289)" opacity="0.1"/>
    <path id="Path_104" data-name="Path 104" d="M347.819,140.931c.792.519,1.448,1.366,2.386,1.485a3.7,3.7,0,0,0,1.94-.483,7.175,7.175,0,0,1,4.991-.674c2.322.774,3.6,3.443,5.911,4.235a4.072,4.072,0,0,0,5.282-2.887,5.191,5.191,0,0,0-1.822-4.873A10.847,10.847,0,0,0,361.6,135.5c-4.645-1.029-9.472-.683-14.217-.328a2.086,2.086,0,0,0-1.111.291c-.719.537-1.949,3.242-1.694,4.153C344.959,140.84,347.691,139.911,347.819,140.931Z" transform="translate(-117.481 -94.929)" opacity="0.1"/>
    <path id="Path_105" data-name="Path 105" d="M347.76,140.521c.792.519,1.448,1.366,2.4,1.485a3.725,3.725,0,0,0,1.94-.483,7.157,7.157,0,0,1,4.982-.674c2.322.774,3.6,3.443,5.92,4.235a4.126,4.126,0,0,0,3.461-.383,4.043,4.043,0,0,0,1.822-2.5,5.182,5.182,0,0,0-1.822-4.873,10.838,10.838,0,0,0-4.918-2.231c-4.645-1.029-9.472-.683-14.208-.328a2.086,2.086,0,0,0-1.111.291c-.719.537-1.958,3.242-1.694,4.153C344.872,140.412,347.632,139.5,347.76,140.521Z" transform="translate(-117.476 -94.893)" fill="#f86d70"/>
    <path id="Path_106" data-name="Path 106" d="M415.28,148.114l1.512,6.111,1.967-1.184,10.656-6.439s8.069-.291,8.7-6.785-8.971-.064-9.481.437a21.332,21.332,0,0,1-1.676,1.357l-9.927,5.528Z" transform="translate(-123.794 -95.118)" fill="#efb7b9"/>
    <path id="Path_107" data-name="Path 107" d="M415.28,149.115l1.512,6.111,1.967-1.184c-.437-2.732-1.111-5.31-1.73-5.9Z" transform="translate(-123.794 -96.118)" opacity="0.1"/>
    <path id="Path_108" data-name="Path 108" d="M357.51,190.169l2.168,12.751,12.86-2.732c-.31-.974-4.126-13.3-1.366-16.339s1.822-12.058,1.822-12.058S368,166.043,367,164.659s-7.486-2.477-7.486-2.477a5.283,5.283,0,0,1-.474-1.821,7,7,0,0,0-.492,1.357c0,2.332.911,3.925,3.433,5.1l.692.3c.392.155.82.3,1.275.446l.209.064c4.144,1.23,5.036,3.707,5.036,3.707a9.445,9.445,0,0,1,1.885,6.685C370.616,182.009,357.51,190.169,357.51,190.169Z" transform="translate(-118.638 -97.209)" opacity="0.1"/>
    <path id="Path_109" data-name="Path 109" d="M358.33,188.993l2.168,12.751,14.472-3.024s-.437-4.818-1.448-6.776-.811-9.572-.811-9.572c6.157-6.63,2.924-12.031,2.924-12.031s18.088-2.924,18.4-3.47,6.375-3.807,6.375-3.807,6.557-1.676,7.441-2.614a8.951,8.951,0,0,1,1.075-.975,2.96,2.96,0,0,1,.355-.228l.483,4.18h.182a5.883,5.883,0,0,0,2.914-1.148c1.494-1.148-.392-13.661-1.821-14.126a1.731,1.731,0,0,0-.838,0,9.107,9.107,0,0,0-3.124,1.685l-.246.2-.091.073s-8.2,3.215-9.827,4.69-14.372,3.361-14.372,3.361-5.71,1.348-6.448.528-9.454-2.149-10.182-.911-2.732,1.056-2.732,1.056c-1.439-1.648-2.432-1.011-3.042-.064a6.467,6.467,0,0,0-.765,1.822c0,2.541,1.111,4.2,4.126,5.4a13.955,13.955,0,0,0,1.484.51c4.144,1.23,5.036,3.707,5.036,3.707a9.481,9.481,0,0,1,1.885,6.694C371.436,180.8,358.33,188.993,358.33,188.993Z" transform="translate(-118.711 -96.115)" fill="#444053"/>
    <path id="Path_110" data-name="Path 110" d="M414.93,148.118a1.3,1.3,0,0,1,.465,0c1.448.446,3.333,12.978,1.821,14.126a5.819,5.819,0,0,1-2.541,1.1h-.219l-.483-4.18a2.956,2.956,0,0,0-.355.228v-.173a10.929,10.929,0,0,0-2.058-9.281Z" transform="translate(-123.462 -96.114)" opacity="0.1"/>
    <path id="Path_111" data-name="Path 111" d="M414.018,159.226l.483,4.18a5.856,5.856,0,0,0,3.133-1.166c1.494-1.148-.392-13.661-1.822-14.126-1.148-.355-3.16,1.075-3.962,1.685A10.856,10.856,0,0,1,414.018,159.226Z" transform="translate(-123.488 -96.111)" fill="#444053"/>
    <path id="Path_112" data-name="Path 112" d="M363.593,167l2.076-1.958-5.464-5.273a6.465,6.465,0,0,0-.765,1.821C359.44,164.142,360.542,165.8,363.593,167Z" transform="translate(-118.81 -97.156)" fill="#444053"/>
    <path id="Path_113" data-name="Path 113" d="M347.691,140.187c.792.519,1.448,1.366,2.386,1.485a3.7,3.7,0,0,0,1.94-.483,7.175,7.175,0,0,1,4.991-.674c2.322.774,3.643,3.443,5.911,4.235a4.035,4.035,0,0,0,5.383-4,4.262,4.262,0,0,1,0,1.822,4.017,4.017,0,0,1-3.06,3.005,4.144,4.144,0,0,1-2.213-.118c-2.322-.792-3.6-3.461-5.911-4.235a7.225,7.225,0,0,0-4.991.674,3.7,3.7,0,0,1-1.94.483c-.911-.118-1.6-.965-2.4-1.485-.128-1.02-2.878-.091-3.224-1.311a1.375,1.375,0,0,1,0-.556C345.086,140,347.545,139.23,347.691,140.187Z" transform="translate(-117.48 -95.305)" opacity="0.1"/>
    <path id="Path_114" data-name="Path 114" d="M357.151,171.91s-1.157,3.242.31,4.326c0,0-1.6-4.281-2.541-4.189" transform="translate(-118.407 -98.239)" opacity="0.1"/>
    <path id="Path_115" data-name="Path 115" d="M435.606,137.3s-7.441,6.43-2.067,7.459S435.606,137.3,435.606,137.3Z" transform="translate(-125.249 -95.151)" fill="#efb7b9"/>
    <path id="Path_116" data-name="Path 116" d="M308.93,52.16l1.43,37.66,41.421-37.66Z" transform="translate(-27.571 -4.655)" fill="#fff"/>
    <path id="Path_117" data-name="Path 117" d="M308.93,52.16l1.43,37.66,41.421-37.66Z" transform="translate(-27.571 -4.655)" opacity="0.03"/>
    <ellipse id="Ellipse_163" data-name="Ellipse 163" cx="30.783" cy="5.92" rx="30.783" ry="5.92" transform="translate(741.052 624.44)" fill="#0d98ba"/>
    <ellipse id="Ellipse_164" data-name="Ellipse 164" cx="3.588" cy="4.69" rx="3.588" ry="4.69" transform="translate(767.728 623.155)" fill="#3f3d56"/>
    <ellipse id="Ellipse_165" data-name="Ellipse 165" cx="3.588" cy="4.69" rx="3.588" ry="4.69" transform="translate(767.728 617.418)" fill="#3f3d56"/>
    <ellipse id="Ellipse_166" data-name="Ellipse 166" cx="3.588" cy="4.69" rx="3.588" ry="4.69" transform="translate(767.728 611.68)" fill="#3f3d56"/>
    <ellipse id="Ellipse_167" data-name="Ellipse 167" cx="3.588" cy="4.69" rx="3.588" ry="4.69" transform="translate(767.728 605.951)" fill="#3f3d56"/>
    <ellipse id="Ellipse_168" data-name="Ellipse 168" cx="3.588" cy="4.69" rx="3.588" ry="4.69" transform="translate(767.728 600.214)" fill="#3f3d56"/>
    <ellipse id="Ellipse_169" data-name="Ellipse 169" cx="3.588" cy="4.69" rx="3.588" ry="4.69" transform="translate(767.728 594.476)" fill="#3f3d56"/>
    <ellipse id="Ellipse_170" data-name="Ellipse 170" cx="3.588" cy="4.69" rx="3.588" ry="4.69" transform="translate(767.728 588.747)" fill="#3f3d56"/>
    <path id="Path_118" data-name="Path 118" d="M953.862,696.8a19.174,19.174,0,0,0,1.329-1.967l-9.408-1.548,10.182.073a17.141,17.141,0,0,0,.328-13.6l-13.661,7.086,12.6-9.262A17.168,17.168,0,1,0,926.876,696.8a17.828,17.828,0,0,0-1.958,3.124L937.15,706.3l-13.042-4.381a17.222,17.222,0,0,0,2.732,16.129,17.168,17.168,0,1,0,26.995,0,17.185,17.185,0,0,0,0-21.23Z" transform="translate(-169.121 -142.61)" fill="#0d98ba"/>
    <path id="Path_119" data-name="Path 119" d="M923.2,711.145a17.15,17.15,0,0,0,3.643,10.619,17.168,17.168,0,1,0,26.995,0C956.157,718.841,923.2,709.214,923.2,711.145Z" transform="translate(-169.121 -146.342)" opacity="0.1"/>
  </g>
</svg>
