<svg xmlns="http://www.w3.org/2000/svg" width="42.525" height="49.613" viewBox="0 0 42.525 49.613">
  <path id="Icon_metro-language" data-name="Icon metro-language" d="M22.876,32.049q-.028.083-.346-.014t-.872-.318l-.554-.249A16.588,16.588,0,0,1,18.7,30.111q-.194-.138-1.135-.872t-1.052-.789a47.166,47.166,0,0,1-3.71,5.011,20.582,20.582,0,0,1-2.907,3.045,2.194,2.194,0,0,1-.54.111,1.066,1.066,0,0,1-.512,0q.166-.111,2.27-2.547.581-.664,2.367-3.184a38.707,38.707,0,0,0,2.173-3.267q.471-.831,1.412-2.727a21.58,21.58,0,0,0,1-2.146,22.751,22.751,0,0,0-3.045.914q-.221.055-.761.208t-.955.263a4.743,4.743,0,0,0-.471.138.471.471,0,0,0-.055.291.614.614,0,0,1-.028.263q-.138.277-.858.415a2.232,2.232,0,0,1-1.3,0,1.168,1.168,0,0,1-.775-.581,1.408,1.408,0,0,1-.138-.637,5.35,5.35,0,0,1,.678-.138,8.267,8.267,0,0,0,.817-.166q1.606-.443,2.907-.886,2.769-.969,2.824-.969a6.143,6.143,0,0,0,1.19-.54,12.523,12.523,0,0,1,1.218-.6q.249-.083.6-.221t.4-.152a.371.371,0,0,1,.166.014,3.151,3.151,0,0,1-.028.914,5.9,5.9,0,0,1-.346.748q-.346.692-.734,1.481t-.471.927a41.523,41.523,0,0,1-2.132,3.627l1.772.775q.332.166,2.063.886t1.869.775q.111.028.291.706a2.1,2.1,0,0,1,.125.844ZM17.2,18.594a1.123,1.123,0,0,1-.111.775,2.51,2.51,0,0,1-1.384,1.052,4.445,4.445,0,0,1-1.661.332,2.291,2.291,0,0,1-1.357-.72,2.082,2.082,0,0,1-.5-1.135l.028-.083a1.185,1.185,0,0,0,.54.138,2.408,2.408,0,0,0,.734,0q.277-.055,1.606-.443a7.9,7.9,0,0,1,1.523-.388.546.546,0,0,1,.581.471Zm19.325,3.571L38.27,28.45l-3.848-1.163ZM5.85,44.314l19.214-6.423V9.319L5.85,15.77V44.314Zm34.358-8.776,2.824.858-5.011-18.19-2.769-.858-5.98,14.84,2.824.858L33.342,30l5.842,1.8ZM26.282,8.9,42.146,14V3.477Zm8.61,36.628,4.374.36-1.5,4.43-1.107-1.827a20.524,20.524,0,0,1-7.641,2.99,13.269,13.269,0,0,1-2.519.332H24.178a18.712,18.712,0,0,1-5.523-1.08,18.385,18.385,0,0,1-5.08-2.353.577.577,0,0,1-.221-.443.535.535,0,0,1,.138-.374.464.464,0,0,1,.36-.152,1.559,1.559,0,0,1,.5.208q.388.208.844.457t.567.3a24.53,24.53,0,0,0,4.416,1.7,16.132,16.132,0,0,0,4.361.678,23.626,23.626,0,0,0,4.624-.4,22.818,22.818,0,0,0,4.347-1.4q.415-.194.844-.429t.941-.526q.512-.291.789-.457ZM47.3,15.659V45.532L25.866,38.721q-.388.166-10.382,3.53T5.3,45.615a.5.5,0,0,1-.5-.36.213.213,0,0,0-.028-.083V15.327a1.236,1.236,0,0,1,.111-.277,1.246,1.246,0,0,1,.554-.3q2.935-.969,4.125-1.384V2.729L25.008,8.211q.055,0,4.444-1.523t8.749-3Q42.561,2.2,42.672,2.2q.554,0,.554.581V14.358Z" transform="translate(-4.77 -2.203)" fill="#0d98ba"/>
</svg>
