<svg xmlns="http://www.w3.org/2000/svg" width="29.374" height="43.427" viewBox="0 0 29.374 43.427">
  <path id="Icon_material-touch-app" data-name="Icon material-touch-app" d="M15.448,21.54V13.806a5.04,5.04,0,0,1,4.9-5.17,5.04,5.04,0,0,1,4.9,5.17V21.54a9.423,9.423,0,0,0,3.916-7.734A9.057,9.057,0,0,0,20.343,4.5a9.057,9.057,0,0,0-8.812,9.306A9.423,9.423,0,0,0,15.448,21.54Zm19.269,9.575-8.89-4.674a2.632,2.632,0,0,0-1.057-.227H23.281V13.806a2.942,2.942,0,1,0-5.875,0v22.21l-6.717-1.489a3.25,3.25,0,0,0-.47-.062,2.135,2.135,0,0,0-1.547.682L7.125,36.8,16.8,47.017a2.872,2.872,0,0,0,2.076.91h13.3a2.912,2.912,0,0,0,2.82-2.647l1.469-10.9a3.276,3.276,0,0,0,.039-.414,3.106,3.106,0,0,0-1.782-2.854Z" transform="translate(-7.125 -4.5)" fill="#0d98ba"/>
</svg>
